G75*
G70*
%OFA0B0*%
%FSLAX24Y24*%
%IPPOS*%
%LPD*%
%AMOC8*
5,1,8,0,0,1.08239X$1,22.5*
%
%ADD10C,0.0040*%
%ADD11C,0.0000*%
%ADD12C,0.0060*%
%ADD13C,0.0050*%
%ADD14C,0.0020*%
%ADD15C,0.0030*%
%ADD16C,0.0100*%
%ADD17C,0.0080*%
D10*
X003127Y003559D02*
X003434Y003559D01*
X003511Y003635D01*
X003511Y003789D01*
X003434Y003865D01*
X003127Y003865D01*
X003050Y003789D01*
X003050Y003635D01*
X003127Y003559D01*
X003204Y004019D02*
X003204Y004249D01*
X003280Y004326D01*
X003434Y004326D01*
X003511Y004249D01*
X003511Y004019D01*
X003664Y004019D02*
X003204Y004019D01*
X003280Y004479D02*
X003204Y004556D01*
X003204Y004709D01*
X003280Y004786D01*
X003357Y004786D01*
X003357Y004479D01*
X003434Y004479D02*
X003280Y004479D01*
X003434Y004479D02*
X003511Y004556D01*
X003511Y004709D01*
X003511Y004940D02*
X003204Y004940D01*
X003204Y005170D01*
X003280Y005246D01*
X003511Y005246D01*
X003511Y005860D02*
X003050Y005860D01*
X003511Y005860D02*
X003511Y006167D01*
X003434Y006321D02*
X003357Y006397D01*
X003357Y006628D01*
X003280Y006628D02*
X003511Y006628D01*
X003511Y006397D01*
X003434Y006321D01*
X003204Y006397D02*
X003204Y006551D01*
X003280Y006628D01*
X003280Y006781D02*
X003204Y006858D01*
X003204Y007088D01*
X003357Y007011D02*
X003357Y006858D01*
X003280Y006781D01*
X003511Y006781D02*
X003511Y007011D01*
X003434Y007088D01*
X003357Y007011D01*
X003357Y007241D02*
X003357Y007548D01*
X003280Y007548D01*
X003204Y007471D01*
X003204Y007318D01*
X003280Y007241D01*
X003434Y007241D01*
X003511Y007318D01*
X003511Y007471D01*
X003511Y007702D02*
X003204Y007702D01*
X003204Y007855D02*
X003204Y007932D01*
X003204Y007855D02*
X003357Y007702D01*
X003434Y008546D02*
X003511Y008622D01*
X003511Y008776D01*
X003434Y008853D01*
X003357Y008853D01*
X003280Y008776D01*
X003280Y008622D01*
X003204Y008546D01*
X003127Y008546D01*
X003050Y008622D01*
X003050Y008776D01*
X003127Y008853D01*
X003050Y009006D02*
X003511Y009006D01*
X003280Y009006D02*
X003204Y009083D01*
X003204Y009236D01*
X003280Y009313D01*
X003511Y009313D01*
X003434Y009466D02*
X003511Y009543D01*
X003511Y009697D01*
X003434Y009773D01*
X003280Y009773D01*
X003204Y009697D01*
X003204Y009543D01*
X003280Y009466D01*
X003434Y009466D01*
X003434Y009927D02*
X003511Y010003D01*
X003434Y010080D01*
X003511Y010157D01*
X003434Y010234D01*
X003204Y010234D01*
X003204Y009927D02*
X003434Y009927D01*
X003511Y010847D02*
X003050Y010847D01*
X003050Y011078D01*
X003127Y011154D01*
X003434Y011154D01*
X003511Y011078D01*
X003511Y010847D01*
X003511Y011308D02*
X003204Y011308D01*
X003050Y011461D01*
X003204Y011615D01*
X003511Y011615D01*
X003434Y011768D02*
X003511Y011845D01*
X003511Y011998D01*
X003434Y012075D01*
X003434Y011768D02*
X003127Y011768D01*
X003050Y011845D01*
X003050Y011998D01*
X003127Y012075D01*
X003280Y011615D02*
X003280Y011308D01*
X003357Y012689D02*
X003050Y012689D01*
X003050Y012996D02*
X003357Y012996D01*
X003511Y012842D01*
X003357Y012689D01*
X003280Y013149D02*
X003280Y013456D01*
X003280Y013610D02*
X003280Y013840D01*
X003357Y013916D01*
X003434Y013916D01*
X003511Y013840D01*
X003511Y013610D01*
X003050Y013610D01*
X003050Y013840D01*
X003127Y013916D01*
X003204Y013916D01*
X003280Y013840D01*
X003050Y013379D02*
X003280Y013149D01*
X003511Y013379D02*
X003050Y013379D01*
X003280Y014530D02*
X003280Y014837D01*
X003127Y015451D02*
X003434Y015451D01*
X003511Y015528D01*
X003511Y015681D01*
X003434Y015758D01*
X003511Y015911D02*
X003204Y015911D01*
X003050Y016065D01*
X003204Y016218D01*
X003511Y016218D01*
X003511Y016372D02*
X003050Y016372D01*
X003050Y016679D01*
X003280Y016525D02*
X003280Y016372D01*
X003280Y016218D02*
X003280Y015911D01*
X003127Y015758D02*
X003050Y015681D01*
X003050Y015528D01*
X003127Y015451D01*
X003127Y017292D02*
X003050Y017369D01*
X003050Y017523D01*
X003127Y017599D01*
X003204Y017599D01*
X003511Y017292D01*
X003511Y017599D01*
X003434Y017753D02*
X003511Y017829D01*
X003511Y017983D01*
X003434Y018060D01*
X003127Y018060D01*
X003434Y017753D01*
X003127Y017753D01*
X003050Y017829D01*
X003050Y017983D01*
X003127Y018060D01*
X003204Y018213D02*
X003050Y018367D01*
X003511Y018367D01*
X003511Y018520D02*
X003511Y018213D01*
X003511Y018673D02*
X003511Y018980D01*
X003511Y018827D02*
X003050Y018827D01*
X003204Y018673D01*
X004950Y018589D02*
X004950Y018435D01*
X005027Y018359D01*
X005334Y018359D01*
X005411Y018435D01*
X005411Y018589D01*
X005334Y018665D01*
X005180Y018819D02*
X005180Y019126D01*
X004950Y019049D02*
X005180Y018819D01*
X005027Y018665D02*
X004950Y018589D01*
X004950Y019049D02*
X005411Y019049D01*
X005999Y019329D02*
X006169Y019500D01*
X006511Y019500D01*
X006511Y019666D02*
X005999Y019666D01*
X005999Y019922D01*
X006084Y020007D01*
X006255Y020007D01*
X006340Y019922D01*
X006340Y019666D01*
X006340Y019837D02*
X006511Y020007D01*
X006511Y020174D02*
X006511Y020515D01*
X006511Y020681D02*
X005999Y020681D01*
X005999Y021022D01*
X006255Y020852D02*
X006255Y020681D01*
X005999Y020515D02*
X005999Y020174D01*
X006511Y020174D01*
X006255Y020174D02*
X006255Y020344D01*
X006255Y019500D02*
X006255Y019159D01*
X006169Y019159D02*
X005999Y019329D01*
X006169Y019159D02*
X006511Y019159D01*
X007549Y019244D02*
X007634Y019159D01*
X007975Y019159D01*
X008061Y019244D01*
X008061Y019414D01*
X007975Y019500D01*
X007805Y019500D01*
X007805Y019329D01*
X007634Y019500D02*
X007549Y019414D01*
X007549Y019244D01*
X007549Y019666D02*
X008061Y020007D01*
X007549Y020007D01*
X007549Y020174D02*
X007549Y020429D01*
X007634Y020515D01*
X007975Y020515D01*
X008061Y020429D01*
X008061Y020174D01*
X007549Y020174D01*
X007549Y019666D02*
X008061Y019666D01*
X008599Y019679D02*
X008769Y019509D01*
X008599Y019679D02*
X009111Y019679D01*
X009111Y019509D02*
X009111Y019850D01*
X009025Y020016D02*
X009111Y020101D01*
X009111Y020272D01*
X009025Y020357D01*
X008940Y020357D01*
X008855Y020272D01*
X008855Y020187D01*
X008855Y020272D02*
X008769Y020357D01*
X008684Y020357D01*
X008599Y020272D01*
X008599Y020101D01*
X008684Y020016D01*
X009599Y020101D02*
X009684Y020016D01*
X009599Y020101D02*
X009599Y020272D01*
X009684Y020357D01*
X009769Y020357D01*
X010111Y020016D01*
X010111Y020357D01*
X010111Y019850D02*
X010111Y019509D01*
X010111Y019679D02*
X009599Y019679D01*
X009769Y019509D01*
X010699Y019729D02*
X011211Y019729D01*
X011211Y019559D02*
X011211Y019900D01*
X011211Y020066D02*
X011211Y020407D01*
X011211Y020237D02*
X010699Y020237D01*
X010869Y020066D01*
X010699Y019729D02*
X010869Y019559D01*
X011699Y019679D02*
X012211Y019679D01*
X012211Y019509D02*
X012211Y019850D01*
X012125Y020016D02*
X011784Y020357D01*
X012125Y020357D01*
X012211Y020272D01*
X012211Y020101D01*
X012125Y020016D01*
X011784Y020016D01*
X011699Y020101D01*
X011699Y020272D01*
X011784Y020357D01*
X011699Y019679D02*
X011869Y019509D01*
X012699Y020094D02*
X012784Y020009D01*
X012869Y020009D01*
X012955Y020094D01*
X012955Y020350D01*
X013125Y020350D02*
X012784Y020350D01*
X012699Y020264D01*
X012699Y020094D01*
X013125Y020009D02*
X013211Y020094D01*
X013211Y020264D01*
X013125Y020350D01*
X013699Y020264D02*
X013699Y020094D01*
X013784Y020009D01*
X013869Y020009D01*
X013955Y020094D01*
X013955Y020264D01*
X014040Y020350D01*
X014125Y020350D01*
X014211Y020264D01*
X014211Y020094D01*
X014125Y020009D01*
X014040Y020009D01*
X013955Y020094D01*
X013955Y020264D02*
X013869Y020350D01*
X013784Y020350D01*
X013699Y020264D01*
X015198Y020344D02*
X015198Y020003D01*
X015283Y020344D02*
X015624Y020003D01*
X015710Y020003D01*
X016173Y020244D02*
X016258Y020074D01*
X016429Y019903D01*
X016429Y020159D01*
X016514Y020244D01*
X016599Y020244D01*
X016685Y020159D01*
X016685Y019989D01*
X016599Y019903D01*
X016429Y019903D01*
X017173Y019953D02*
X017429Y019953D01*
X017344Y020124D01*
X017344Y020209D01*
X017429Y020294D01*
X017599Y020294D01*
X017685Y020209D01*
X017685Y020039D01*
X017599Y019953D01*
X017173Y019953D02*
X017173Y020294D01*
X018148Y020209D02*
X018404Y019953D01*
X018404Y020294D01*
X018660Y020209D02*
X018148Y020209D01*
X019173Y020209D02*
X019258Y020294D01*
X019344Y020294D01*
X019429Y020209D01*
X019514Y020294D01*
X019599Y020294D01*
X019685Y020209D01*
X019685Y020039D01*
X019599Y019953D01*
X019429Y020124D02*
X019429Y020209D01*
X019173Y020209D02*
X019173Y020039D01*
X019258Y019953D01*
X020173Y020039D02*
X020258Y019953D01*
X020173Y020039D02*
X020173Y020209D01*
X020258Y020294D01*
X020344Y020294D01*
X020685Y019953D01*
X020685Y020294D01*
X021173Y020224D02*
X021685Y020224D01*
X021685Y020394D02*
X021685Y020053D01*
X021344Y020053D02*
X021173Y020224D01*
X022198Y020259D02*
X022198Y020089D01*
X022283Y020003D01*
X022624Y020003D01*
X022283Y020344D01*
X022624Y020344D01*
X022710Y020259D01*
X022710Y020089D01*
X022624Y020003D01*
X022283Y020344D02*
X022198Y020259D01*
X020401Y018263D02*
X020340Y018263D01*
X020280Y018202D01*
X020280Y018022D01*
X020401Y018022D01*
X020461Y018082D01*
X020461Y018202D01*
X020401Y018263D01*
X020160Y018142D02*
X020280Y018022D01*
X020160Y018142D02*
X020100Y018263D01*
X020160Y017894D02*
X020100Y017834D01*
X020100Y017714D01*
X020160Y017654D01*
X020401Y017654D01*
X020461Y017714D01*
X020461Y017834D01*
X020401Y017894D01*
X020461Y017529D02*
X020461Y017409D01*
X020461Y017469D02*
X020100Y017469D01*
X020100Y017409D02*
X020100Y017529D01*
X018991Y015498D02*
X018991Y015379D01*
X017770Y015379D02*
X017770Y015498D01*
X017191Y015398D02*
X017191Y015279D01*
X015970Y015279D02*
X015970Y015398D01*
X013991Y015198D02*
X013991Y015079D01*
X012770Y015079D02*
X012770Y015198D01*
X011541Y015098D02*
X011541Y014979D01*
X010320Y014979D02*
X010320Y015098D01*
X010320Y013448D02*
X010320Y013329D01*
X011541Y013329D02*
X011541Y013448D01*
X012770Y013448D02*
X012770Y013329D01*
X013991Y013329D02*
X013991Y013448D01*
X015970Y013429D02*
X015970Y013548D01*
X017191Y013548D02*
X017191Y013429D01*
X020920Y013879D02*
X020920Y013998D01*
X022141Y013998D02*
X022141Y013879D01*
X023077Y012905D02*
X023154Y012905D01*
X023230Y012828D01*
X023307Y012905D01*
X023384Y012905D01*
X023461Y012828D01*
X023461Y012675D01*
X023384Y012598D01*
X023384Y012445D02*
X023461Y012368D01*
X023461Y012214D01*
X023384Y012138D01*
X023077Y012138D01*
X023000Y012214D01*
X023000Y012368D01*
X023077Y012445D01*
X023077Y012598D02*
X023000Y012675D01*
X023000Y012828D01*
X023077Y012905D01*
X023230Y012828D02*
X023230Y012751D01*
X023000Y011984D02*
X023000Y011831D01*
X023000Y011908D02*
X023461Y011908D01*
X023461Y011984D02*
X023461Y011831D01*
X022127Y008255D02*
X022434Y007948D01*
X022511Y007948D01*
X022434Y007795D02*
X022511Y007718D01*
X022511Y007564D01*
X022434Y007488D01*
X022127Y007488D01*
X022050Y007564D01*
X022050Y007718D01*
X022127Y007795D01*
X022050Y007948D02*
X022050Y008255D01*
X022127Y008255D01*
X022050Y007334D02*
X022050Y007181D01*
X022050Y007258D02*
X022511Y007258D01*
X022511Y007334D02*
X022511Y007181D01*
X022525Y003450D02*
X022355Y003450D01*
X022269Y003364D01*
X022269Y003279D01*
X022355Y003109D01*
X022099Y003109D01*
X022099Y003450D01*
X022525Y003450D02*
X022611Y003364D01*
X022611Y003194D01*
X022525Y003109D01*
X021511Y003364D02*
X020999Y003364D01*
X021255Y003109D01*
X021255Y003450D01*
X020711Y003364D02*
X020711Y003194D01*
X020625Y003109D01*
X020455Y003279D02*
X020455Y003364D01*
X020540Y003450D01*
X020625Y003450D01*
X020711Y003364D01*
X020455Y003364D02*
X020369Y003450D01*
X020284Y003450D01*
X020199Y003364D01*
X020199Y003194D01*
X020284Y003109D01*
X019711Y003109D02*
X019711Y003450D01*
X019369Y003450D02*
X019284Y003450D01*
X019199Y003364D01*
X019199Y003194D01*
X019284Y003109D01*
X018711Y003109D02*
X018711Y003450D01*
X018711Y003279D02*
X018199Y003279D01*
X018369Y003109D01*
X017661Y003194D02*
X017575Y003109D01*
X017234Y003450D01*
X017575Y003450D01*
X017661Y003364D01*
X017661Y003194D01*
X017575Y003109D02*
X017234Y003109D01*
X017149Y003194D01*
X017149Y003364D01*
X017234Y003450D01*
X015978Y003083D02*
X015978Y002853D01*
X015978Y003083D02*
X015901Y003160D01*
X015671Y003160D01*
X015671Y002853D01*
X015518Y002853D02*
X015364Y002853D01*
X015441Y002853D02*
X015441Y003160D01*
X015364Y003160D01*
X015441Y003314D02*
X015441Y003390D01*
X015211Y003314D02*
X015211Y003007D01*
X015057Y002853D01*
X014904Y003007D01*
X014904Y003314D01*
X014531Y003237D02*
X014531Y002930D01*
X014455Y002853D01*
X014225Y002853D01*
X014225Y003314D01*
X014455Y003314D01*
X014531Y003237D01*
X014071Y003314D02*
X014071Y002853D01*
X013764Y003314D01*
X013764Y002853D01*
X013611Y002930D02*
X013611Y003083D01*
X013457Y003083D01*
X013304Y002930D02*
X013381Y002853D01*
X013534Y002853D01*
X013611Y002930D01*
X013611Y003237D02*
X013534Y003314D01*
X013381Y003314D01*
X013304Y003237D01*
X013304Y002930D01*
X012871Y003007D02*
X012718Y002853D01*
X012564Y003007D01*
X012564Y003314D01*
X012411Y003314D02*
X012104Y003314D01*
X012104Y003083D01*
X012257Y003160D01*
X012334Y003160D01*
X012411Y003083D01*
X012411Y002930D01*
X012334Y002853D01*
X012181Y002853D01*
X012104Y002930D01*
X011599Y002939D02*
X011514Y002853D01*
X011599Y002939D02*
X011599Y003109D01*
X011514Y003194D01*
X011428Y003194D01*
X011343Y003109D01*
X011343Y003024D01*
X011343Y003109D02*
X011258Y003194D01*
X011172Y003194D01*
X011087Y003109D01*
X011087Y002939D01*
X011172Y002853D01*
X011087Y003361D02*
X011428Y003361D01*
X011599Y003531D01*
X011428Y003702D01*
X011087Y003702D01*
X011172Y003868D02*
X011087Y003954D01*
X011087Y004124D01*
X011172Y004209D01*
X011258Y004209D01*
X011343Y004124D01*
X011428Y004209D01*
X011514Y004209D01*
X011599Y004124D01*
X011599Y003954D01*
X011514Y003868D01*
X011343Y004039D02*
X011343Y004124D01*
X010649Y004039D02*
X010137Y004039D01*
X010137Y004209D02*
X010137Y003868D01*
X010222Y003702D02*
X010137Y003617D01*
X010137Y003446D01*
X010222Y003361D01*
X010308Y003361D01*
X010393Y003446D01*
X010393Y003617D01*
X010478Y003702D01*
X010564Y003702D01*
X010649Y003617D01*
X010649Y003446D01*
X010564Y003361D01*
X010649Y003194D02*
X010478Y003024D01*
X010478Y003109D02*
X010478Y002853D01*
X010649Y002853D02*
X010137Y002853D01*
X010137Y003109D01*
X010222Y003194D01*
X010393Y003194D01*
X010478Y003109D01*
X012871Y003007D02*
X012871Y003314D01*
X014471Y003978D02*
X014590Y003978D01*
X014590Y005199D02*
X014471Y005199D01*
X015350Y006331D02*
X015350Y006484D01*
X015350Y006408D02*
X015811Y006408D01*
X015811Y006484D02*
X015811Y006331D01*
X015734Y006638D02*
X015427Y006638D01*
X015350Y006714D01*
X015350Y006868D01*
X015427Y006945D01*
X015427Y007098D02*
X015350Y007175D01*
X015350Y007328D01*
X015427Y007405D01*
X015504Y007405D01*
X015811Y007098D01*
X015811Y007405D01*
X015734Y006945D02*
X015811Y006868D01*
X015811Y006714D01*
X015734Y006638D01*
X014540Y009128D02*
X014421Y009128D01*
X014421Y010349D02*
X014540Y010349D01*
X011311Y017209D02*
X011311Y017329D01*
X011311Y017269D02*
X010950Y017269D01*
X010950Y017209D02*
X010950Y017329D01*
X011010Y017454D02*
X011251Y017454D01*
X011311Y017514D01*
X011311Y017634D01*
X011251Y017694D01*
X011251Y017822D02*
X011311Y017882D01*
X011311Y018002D01*
X011251Y018063D01*
X011130Y018063D01*
X011070Y018002D01*
X011070Y017942D01*
X011130Y017822D01*
X010950Y017822D01*
X010950Y018063D01*
X011010Y017694D02*
X010950Y017634D01*
X010950Y017514D01*
X011010Y017454D01*
X009911Y017368D02*
X009911Y017214D01*
X009834Y017138D01*
X009450Y017138D01*
X009450Y017445D02*
X009834Y017445D01*
X009911Y017368D01*
X009911Y017598D02*
X009911Y017905D01*
X009911Y017752D02*
X009450Y017752D01*
X009604Y017598D01*
X015198Y020344D02*
X015283Y020344D01*
X019369Y003450D02*
X019711Y003109D01*
D11*
X002631Y001089D02*
X002631Y022389D01*
X027131Y022389D01*
X027131Y001089D01*
X002631Y001089D01*
D12*
X005981Y002239D02*
X005981Y002889D01*
X005981Y003489D02*
X005981Y003889D01*
X005981Y004489D02*
X005981Y005889D01*
X005981Y006489D02*
X005981Y006889D01*
X005981Y007489D02*
X005981Y007889D01*
X005981Y008489D02*
X005981Y009939D01*
X008381Y009939D01*
X008381Y002239D01*
X005981Y002239D01*
X003881Y003589D02*
X003883Y003645D01*
X003889Y003702D01*
X003899Y003757D01*
X003913Y003812D01*
X003930Y003866D01*
X003952Y003918D01*
X003977Y003968D01*
X004005Y004017D01*
X004037Y004064D01*
X004072Y004108D01*
X004110Y004150D01*
X004151Y004189D01*
X004195Y004224D01*
X004241Y004257D01*
X004289Y004286D01*
X004339Y004312D01*
X004391Y004335D01*
X004445Y004353D01*
X004499Y004368D01*
X004554Y004379D01*
X004610Y004386D01*
X004667Y004389D01*
X004723Y004388D01*
X004780Y004383D01*
X004835Y004374D01*
X004890Y004361D01*
X004944Y004344D01*
X004997Y004324D01*
X005048Y004300D01*
X005097Y004272D01*
X005144Y004241D01*
X005189Y004207D01*
X005232Y004169D01*
X005271Y004129D01*
X005308Y004086D01*
X005341Y004041D01*
X005371Y003993D01*
X005398Y003943D01*
X005421Y003892D01*
X005441Y003839D01*
X005457Y003785D01*
X005469Y003729D01*
X005477Y003674D01*
X005481Y003617D01*
X005481Y003561D01*
X005477Y003504D01*
X005469Y003449D01*
X005457Y003393D01*
X005441Y003339D01*
X005421Y003286D01*
X005398Y003235D01*
X005371Y003185D01*
X005341Y003137D01*
X005308Y003092D01*
X005271Y003049D01*
X005232Y003009D01*
X005189Y002971D01*
X005144Y002937D01*
X005097Y002906D01*
X005048Y002878D01*
X004997Y002854D01*
X004944Y002834D01*
X004890Y002817D01*
X004835Y002804D01*
X004780Y002795D01*
X004723Y002790D01*
X004667Y002789D01*
X004610Y002792D01*
X004554Y002799D01*
X004499Y002810D01*
X004445Y002825D01*
X004391Y002843D01*
X004339Y002866D01*
X004289Y002892D01*
X004241Y002921D01*
X004195Y002954D01*
X004151Y002989D01*
X004110Y003028D01*
X004072Y003070D01*
X004037Y003114D01*
X004005Y003161D01*
X003977Y003210D01*
X003952Y003260D01*
X003930Y003312D01*
X003913Y003366D01*
X003899Y003421D01*
X003889Y003476D01*
X003883Y003533D01*
X003881Y003589D01*
X004381Y004039D02*
X004381Y004239D01*
X004281Y004139D02*
X004481Y004139D01*
X003881Y006189D02*
X003883Y006245D01*
X003889Y006302D01*
X003899Y006357D01*
X003913Y006412D01*
X003930Y006466D01*
X003952Y006518D01*
X003977Y006568D01*
X004005Y006617D01*
X004037Y006664D01*
X004072Y006708D01*
X004110Y006750D01*
X004151Y006789D01*
X004195Y006824D01*
X004241Y006857D01*
X004289Y006886D01*
X004339Y006912D01*
X004391Y006935D01*
X004445Y006953D01*
X004499Y006968D01*
X004554Y006979D01*
X004610Y006986D01*
X004667Y006989D01*
X004723Y006988D01*
X004780Y006983D01*
X004835Y006974D01*
X004890Y006961D01*
X004944Y006944D01*
X004997Y006924D01*
X005048Y006900D01*
X005097Y006872D01*
X005144Y006841D01*
X005189Y006807D01*
X005232Y006769D01*
X005271Y006729D01*
X005308Y006686D01*
X005341Y006641D01*
X005371Y006593D01*
X005398Y006543D01*
X005421Y006492D01*
X005441Y006439D01*
X005457Y006385D01*
X005469Y006329D01*
X005477Y006274D01*
X005481Y006217D01*
X005481Y006161D01*
X005477Y006104D01*
X005469Y006049D01*
X005457Y005993D01*
X005441Y005939D01*
X005421Y005886D01*
X005398Y005835D01*
X005371Y005785D01*
X005341Y005737D01*
X005308Y005692D01*
X005271Y005649D01*
X005232Y005609D01*
X005189Y005571D01*
X005144Y005537D01*
X005097Y005506D01*
X005048Y005478D01*
X004997Y005454D01*
X004944Y005434D01*
X004890Y005417D01*
X004835Y005404D01*
X004780Y005395D01*
X004723Y005390D01*
X004667Y005389D01*
X004610Y005392D01*
X004554Y005399D01*
X004499Y005410D01*
X004445Y005425D01*
X004391Y005443D01*
X004339Y005466D01*
X004289Y005492D01*
X004241Y005521D01*
X004195Y005554D01*
X004151Y005589D01*
X004110Y005628D01*
X004072Y005670D01*
X004037Y005714D01*
X004005Y005761D01*
X003977Y005810D01*
X003952Y005860D01*
X003930Y005912D01*
X003913Y005966D01*
X003899Y006021D01*
X003889Y006076D01*
X003883Y006133D01*
X003881Y006189D01*
X004381Y006639D02*
X004381Y006839D01*
X004281Y006739D02*
X004481Y006739D01*
X004981Y007539D02*
X004981Y007739D01*
X005081Y007639D02*
X004881Y007639D01*
X003881Y008189D02*
X003883Y008245D01*
X003889Y008302D01*
X003899Y008357D01*
X003913Y008412D01*
X003930Y008466D01*
X003952Y008518D01*
X003977Y008568D01*
X004005Y008617D01*
X004037Y008664D01*
X004072Y008708D01*
X004110Y008750D01*
X004151Y008789D01*
X004195Y008824D01*
X004241Y008857D01*
X004289Y008886D01*
X004339Y008912D01*
X004391Y008935D01*
X004445Y008953D01*
X004499Y008968D01*
X004554Y008979D01*
X004610Y008986D01*
X004667Y008989D01*
X004723Y008988D01*
X004780Y008983D01*
X004835Y008974D01*
X004890Y008961D01*
X004944Y008944D01*
X004997Y008924D01*
X005048Y008900D01*
X005097Y008872D01*
X005144Y008841D01*
X005189Y008807D01*
X005232Y008769D01*
X005271Y008729D01*
X005308Y008686D01*
X005341Y008641D01*
X005371Y008593D01*
X005398Y008543D01*
X005421Y008492D01*
X005441Y008439D01*
X005457Y008385D01*
X005469Y008329D01*
X005477Y008274D01*
X005481Y008217D01*
X005481Y008161D01*
X005477Y008104D01*
X005469Y008049D01*
X005457Y007993D01*
X005441Y007939D01*
X005421Y007886D01*
X005398Y007835D01*
X005371Y007785D01*
X005341Y007737D01*
X005308Y007692D01*
X005271Y007649D01*
X005232Y007609D01*
X005189Y007571D01*
X005144Y007537D01*
X005097Y007506D01*
X005048Y007478D01*
X004997Y007454D01*
X004944Y007434D01*
X004890Y007417D01*
X004835Y007404D01*
X004780Y007395D01*
X004723Y007390D01*
X004667Y007389D01*
X004610Y007392D01*
X004554Y007399D01*
X004499Y007410D01*
X004445Y007425D01*
X004391Y007443D01*
X004339Y007466D01*
X004289Y007492D01*
X004241Y007521D01*
X004195Y007554D01*
X004151Y007589D01*
X004110Y007628D01*
X004072Y007670D01*
X004037Y007714D01*
X004005Y007761D01*
X003977Y007810D01*
X003952Y007860D01*
X003930Y007912D01*
X003913Y007966D01*
X003899Y008021D01*
X003889Y008076D01*
X003883Y008133D01*
X003881Y008189D01*
X009931Y002339D02*
X010181Y002589D01*
X010681Y002589D01*
X010931Y002339D01*
X011181Y002589D01*
X011681Y002589D01*
X011931Y002339D01*
X011931Y001839D01*
X011681Y001589D01*
X011181Y001589D01*
X010931Y001839D01*
X010681Y001589D01*
X010181Y001589D01*
X009931Y001839D01*
X009931Y002339D01*
X010931Y002339D02*
X010931Y001839D01*
X011931Y001839D02*
X012181Y001589D01*
X012681Y001589D01*
X012931Y001839D01*
X013181Y001589D01*
X013681Y001589D01*
X013931Y001839D01*
X014181Y001589D01*
X014681Y001589D01*
X014931Y001839D01*
X015181Y001589D01*
X015681Y001589D01*
X015931Y001839D01*
X015931Y002339D01*
X015681Y002589D01*
X015181Y002589D01*
X014931Y002339D01*
X014931Y001839D01*
X014931Y002339D02*
X014681Y002589D01*
X014181Y002589D01*
X013931Y002339D01*
X013931Y001839D01*
X013931Y002339D02*
X013681Y002589D01*
X013181Y002589D01*
X012931Y002339D01*
X012931Y001839D01*
X012931Y002339D02*
X012681Y002589D01*
X012181Y002589D01*
X011931Y002339D01*
X016931Y002339D02*
X016931Y001839D01*
X017181Y001589D01*
X017681Y001589D01*
X017931Y001839D01*
X018181Y001589D01*
X018681Y001589D01*
X018931Y001839D01*
X018931Y002339D01*
X018681Y002589D01*
X018181Y002589D01*
X017931Y002339D01*
X017931Y001839D01*
X017931Y002339D02*
X017681Y002589D01*
X017181Y002589D01*
X016931Y002339D01*
X018931Y002339D02*
X019181Y002589D01*
X019681Y002589D01*
X019931Y002339D01*
X020181Y002589D01*
X020681Y002589D01*
X020931Y002339D01*
X021181Y002589D01*
X021681Y002589D01*
X021931Y002339D01*
X022181Y002589D01*
X022681Y002589D01*
X022931Y002339D01*
X022931Y001839D01*
X022681Y001589D01*
X022181Y001589D01*
X021931Y001839D01*
X021681Y001589D01*
X021181Y001589D01*
X020931Y001839D01*
X020681Y001589D01*
X020181Y001589D01*
X019931Y001839D01*
X019681Y001589D01*
X019181Y001589D01*
X018931Y001839D01*
X019931Y001839D02*
X019931Y002339D01*
X020931Y002339D02*
X020931Y001839D01*
X021931Y001839D02*
X021931Y002339D01*
X019931Y017069D02*
X016231Y017069D01*
X016208Y017071D01*
X016185Y017076D01*
X016163Y017085D01*
X016143Y017098D01*
X016125Y017113D01*
X016110Y017131D01*
X016097Y017151D01*
X016088Y017173D01*
X016083Y017196D01*
X016081Y017219D01*
X016081Y017639D01*
X016081Y018039D01*
X016081Y018459D01*
X016083Y018482D01*
X016088Y018505D01*
X016097Y018527D01*
X016110Y018547D01*
X016125Y018565D01*
X016143Y018580D01*
X016163Y018593D01*
X016185Y018602D01*
X016208Y018607D01*
X016231Y018609D01*
X019931Y018609D01*
X019954Y018607D01*
X019977Y018602D01*
X019999Y018593D01*
X020019Y018580D01*
X020037Y018565D01*
X020052Y018547D01*
X020065Y018527D01*
X020074Y018505D01*
X020079Y018482D01*
X020081Y018459D01*
X020081Y017219D01*
X020079Y017196D01*
X020074Y017173D01*
X020065Y017151D01*
X020052Y017131D01*
X020037Y017113D01*
X020019Y017098D01*
X019999Y017085D01*
X019977Y017076D01*
X019954Y017071D01*
X019931Y017069D01*
X016081Y017639D02*
X016108Y017641D01*
X016135Y017646D01*
X016161Y017656D01*
X016185Y017668D01*
X016207Y017684D01*
X016227Y017702D01*
X016244Y017724D01*
X016259Y017747D01*
X016269Y017772D01*
X016277Y017798D01*
X016281Y017825D01*
X016281Y017853D01*
X016277Y017880D01*
X016269Y017906D01*
X016259Y017931D01*
X016244Y017954D01*
X016227Y017976D01*
X016207Y017994D01*
X016185Y018010D01*
X016161Y018022D01*
X016135Y018032D01*
X016108Y018037D01*
X016081Y018039D01*
X015081Y018359D02*
X015081Y017119D01*
X015079Y017096D01*
X015074Y017073D01*
X015065Y017051D01*
X015052Y017031D01*
X015037Y017013D01*
X015019Y016998D01*
X014999Y016985D01*
X014977Y016976D01*
X014954Y016971D01*
X014931Y016969D01*
X011231Y016969D01*
X011208Y016971D01*
X011185Y016976D01*
X011163Y016985D01*
X011143Y016998D01*
X011125Y017013D01*
X011110Y017031D01*
X011097Y017051D01*
X011088Y017073D01*
X011083Y017096D01*
X011081Y017119D01*
X011081Y017539D01*
X011081Y017939D01*
X011081Y018359D01*
X011083Y018382D01*
X011088Y018405D01*
X011097Y018427D01*
X011110Y018447D01*
X011125Y018465D01*
X011143Y018480D01*
X011163Y018493D01*
X011185Y018502D01*
X011208Y018507D01*
X011231Y018509D01*
X014931Y018509D01*
X014954Y018507D01*
X014977Y018502D01*
X014999Y018493D01*
X015019Y018480D01*
X015037Y018465D01*
X015052Y018447D01*
X015065Y018427D01*
X015074Y018405D01*
X015079Y018382D01*
X015081Y018359D01*
X015181Y020589D02*
X015681Y020589D01*
X015931Y020839D01*
X016181Y020589D01*
X016681Y020589D01*
X016931Y020839D01*
X016931Y021339D01*
X016681Y021589D01*
X016181Y021589D01*
X015931Y021339D01*
X015931Y020839D01*
X015931Y021339D02*
X015681Y021589D01*
X015181Y021589D01*
X014931Y021339D01*
X014931Y020839D01*
X015181Y020589D01*
X014331Y020839D02*
X014081Y020589D01*
X013581Y020589D01*
X013331Y020839D01*
X013081Y020589D01*
X012581Y020589D01*
X012331Y020839D01*
X012081Y020589D01*
X011581Y020589D01*
X011331Y020839D01*
X011081Y020589D01*
X010581Y020589D01*
X010331Y020839D01*
X010081Y020589D01*
X009581Y020589D01*
X009331Y020839D01*
X009081Y020589D01*
X008581Y020589D01*
X008331Y020839D01*
X008081Y020589D01*
X007581Y020589D01*
X007331Y020839D01*
X007081Y020589D01*
X006581Y020589D01*
X006331Y020839D01*
X006331Y021339D01*
X006581Y021589D01*
X007081Y021589D01*
X007331Y021339D01*
X007581Y021589D01*
X008081Y021589D01*
X008331Y021339D01*
X008331Y020839D01*
X008331Y021339D02*
X008581Y021589D01*
X009081Y021589D01*
X009331Y021339D01*
X009581Y021589D01*
X010081Y021589D01*
X010331Y021339D01*
X010581Y021589D01*
X011081Y021589D01*
X011331Y021339D01*
X011331Y020839D01*
X011331Y021339D02*
X011581Y021589D01*
X012081Y021589D01*
X012331Y021339D01*
X012581Y021589D01*
X013081Y021589D01*
X013331Y021339D01*
X013581Y021589D01*
X014081Y021589D01*
X014331Y021339D01*
X014331Y020839D01*
X013331Y020839D02*
X013331Y021339D01*
X012331Y021339D02*
X012331Y020839D01*
X010331Y020839D02*
X010331Y021339D01*
X009331Y021339D02*
X009331Y020839D01*
X007331Y020839D02*
X007331Y021339D01*
X011081Y017939D02*
X011108Y017937D01*
X011135Y017932D01*
X011161Y017922D01*
X011185Y017910D01*
X011207Y017894D01*
X011227Y017876D01*
X011244Y017854D01*
X011259Y017831D01*
X011269Y017806D01*
X011277Y017780D01*
X011281Y017753D01*
X011281Y017725D01*
X011277Y017698D01*
X011269Y017672D01*
X011259Y017647D01*
X011244Y017624D01*
X011227Y017602D01*
X011207Y017584D01*
X011185Y017568D01*
X011161Y017556D01*
X011135Y017546D01*
X011108Y017541D01*
X011081Y017539D01*
X016931Y020839D02*
X017181Y020589D01*
X017681Y020589D01*
X017931Y020839D01*
X018181Y020589D01*
X018681Y020589D01*
X018931Y020839D01*
X019181Y020589D01*
X019681Y020589D01*
X019931Y020839D01*
X019931Y021339D01*
X019681Y021589D01*
X019181Y021589D01*
X018931Y021339D01*
X018931Y020839D01*
X018931Y021339D02*
X018681Y021589D01*
X018181Y021589D01*
X017931Y021339D01*
X017931Y020839D01*
X017931Y021339D02*
X017681Y021589D01*
X017181Y021589D01*
X016931Y021339D01*
X019931Y021339D02*
X020181Y021589D01*
X020681Y021589D01*
X020931Y021339D01*
X021181Y021589D01*
X021681Y021589D01*
X021931Y021339D01*
X022181Y021589D01*
X022681Y021589D01*
X022931Y021339D01*
X022931Y020839D01*
X022681Y020589D01*
X022181Y020589D01*
X021931Y020839D01*
X021681Y020589D01*
X021181Y020589D01*
X020931Y020839D01*
X020681Y020589D01*
X020181Y020589D01*
X019931Y020839D01*
X020931Y020839D02*
X020931Y021339D01*
X021931Y021339D02*
X021931Y020839D01*
D13*
X022731Y012489D02*
X019331Y012489D01*
X019331Y010889D01*
X022731Y010889D01*
X022731Y012489D01*
X022431Y012289D02*
X022433Y012309D01*
X022439Y012327D01*
X022448Y012345D01*
X022460Y012360D01*
X022475Y012372D01*
X022493Y012381D01*
X022511Y012387D01*
X022531Y012389D01*
X022551Y012387D01*
X022569Y012381D01*
X022587Y012372D01*
X022602Y012360D01*
X022614Y012345D01*
X022623Y012327D01*
X022629Y012309D01*
X022631Y012289D01*
X022629Y012269D01*
X022623Y012251D01*
X022614Y012233D01*
X022602Y012218D01*
X022587Y012206D01*
X022569Y012197D01*
X022551Y012191D01*
X022531Y012189D01*
X022511Y012191D01*
X022493Y012197D01*
X022475Y012206D01*
X022460Y012218D01*
X022448Y012233D01*
X022439Y012251D01*
X022433Y012269D01*
X022431Y012289D01*
X014981Y007689D02*
X011581Y007689D01*
X011581Y006089D01*
X014981Y006089D01*
X014981Y007689D01*
X014681Y007489D02*
X014683Y007509D01*
X014689Y007527D01*
X014698Y007545D01*
X014710Y007560D01*
X014725Y007572D01*
X014743Y007581D01*
X014761Y007587D01*
X014781Y007589D01*
X014801Y007587D01*
X014819Y007581D01*
X014837Y007572D01*
X014852Y007560D01*
X014864Y007545D01*
X014873Y007527D01*
X014879Y007509D01*
X014881Y007489D01*
X014879Y007469D01*
X014873Y007451D01*
X014864Y007433D01*
X014852Y007418D01*
X014837Y007406D01*
X014819Y007397D01*
X014801Y007391D01*
X014781Y007389D01*
X014761Y007391D01*
X014743Y007397D01*
X014725Y007406D01*
X014710Y007418D01*
X014698Y007433D01*
X014689Y007451D01*
X014683Y007469D01*
X014681Y007489D01*
X007971Y009372D02*
X007912Y009314D01*
X007796Y009314D01*
X007737Y009372D01*
X007737Y009605D01*
X007796Y009664D01*
X007912Y009664D01*
X007971Y009605D01*
X007602Y009605D02*
X007602Y009372D01*
X007544Y009314D01*
X007369Y009314D01*
X007369Y009664D01*
X007544Y009664D01*
X007602Y009605D01*
X007234Y009489D02*
X007001Y009489D01*
X006866Y009605D02*
X006807Y009664D01*
X006691Y009664D01*
X006632Y009605D01*
X006632Y009372D01*
X006691Y009314D01*
X006807Y009314D01*
X006866Y009372D01*
X006498Y009372D02*
X006498Y009605D01*
X006439Y009664D01*
X006264Y009664D01*
X006264Y009314D01*
X006439Y009314D01*
X006498Y009372D01*
X005345Y009464D02*
X005345Y009539D01*
X005270Y009614D01*
X005120Y009614D01*
X005045Y009539D01*
X004885Y009539D02*
X004810Y009614D01*
X004660Y009614D01*
X004585Y009539D01*
X004585Y009239D01*
X004660Y009164D01*
X004810Y009164D01*
X004885Y009239D01*
X005045Y009164D02*
X005345Y009464D01*
X005345Y009164D02*
X005045Y009164D01*
X007087Y008239D02*
X007262Y008239D01*
X007321Y008180D01*
X007321Y008122D01*
X007262Y008064D01*
X007146Y008064D01*
X007087Y008122D01*
X007087Y008239D01*
X007204Y008355D01*
X007321Y008414D01*
X005641Y005364D02*
X005716Y005289D01*
X005716Y005214D01*
X005641Y005139D01*
X005716Y005064D01*
X005716Y004989D01*
X005641Y004914D01*
X005491Y004914D01*
X005416Y004989D01*
X005256Y004989D02*
X005181Y004914D01*
X005031Y004914D01*
X004956Y004989D01*
X004956Y005289D01*
X005031Y005364D01*
X005181Y005364D01*
X005256Y005289D01*
X005416Y005289D02*
X005491Y005364D01*
X005641Y005364D01*
X005641Y005139D02*
X005566Y005139D01*
X007204Y003364D02*
X007204Y003014D01*
X007087Y003014D02*
X007321Y003014D01*
X007087Y003247D02*
X007204Y003364D01*
X006845Y002164D02*
X006845Y001714D01*
X006695Y001714D02*
X006995Y001714D01*
X006695Y002014D02*
X006845Y002164D01*
X006535Y002089D02*
X006460Y002164D01*
X006310Y002164D01*
X006235Y002089D01*
X006235Y001789D01*
X006310Y001714D01*
X006460Y001714D01*
X006535Y001789D01*
X006078Y001714D02*
X005928Y001714D01*
X006003Y001714D02*
X006003Y002164D01*
X005928Y002164D02*
X006078Y002164D01*
X005666Y002314D02*
X005366Y002314D01*
X005516Y002314D02*
X005516Y002764D01*
X005366Y002614D01*
X005206Y002689D02*
X005131Y002764D01*
X004981Y002764D01*
X004906Y002689D01*
X004906Y002389D01*
X004981Y002314D01*
X005131Y002314D01*
X005206Y002389D01*
X005881Y016839D02*
X005881Y018439D01*
X009281Y018439D01*
X009281Y016839D01*
X005881Y016839D01*
X008981Y018239D02*
X008983Y018259D01*
X008989Y018277D01*
X008998Y018295D01*
X009010Y018310D01*
X009025Y018322D01*
X009043Y018331D01*
X009061Y018337D01*
X009081Y018339D01*
X009101Y018337D01*
X009119Y018331D01*
X009137Y018322D01*
X009152Y018310D01*
X009164Y018295D01*
X009173Y018277D01*
X009179Y018259D01*
X009181Y018239D01*
X009179Y018219D01*
X009173Y018201D01*
X009164Y018183D01*
X009152Y018168D01*
X009137Y018156D01*
X009119Y018147D01*
X009101Y018141D01*
X009081Y018139D01*
X009061Y018141D01*
X009043Y018147D01*
X009025Y018156D01*
X009010Y018168D01*
X008998Y018183D01*
X008989Y018201D01*
X008983Y018219D01*
X008981Y018239D01*
D14*
X011081Y017109D02*
X015081Y017109D01*
X016081Y017209D02*
X020081Y017209D01*
X025090Y012998D02*
X025231Y012998D01*
X025231Y012951D02*
X025231Y013045D01*
X025137Y012951D02*
X025090Y012998D01*
X025090Y012897D02*
X025231Y012804D01*
X025231Y012897D02*
X025090Y012804D01*
D15*
X024728Y013154D02*
X024535Y013154D01*
X024728Y013347D01*
X024728Y013395D01*
X024680Y013444D01*
X024583Y013444D01*
X024535Y013395D01*
X024337Y013444D02*
X024337Y013154D01*
X024240Y013154D02*
X024434Y013154D01*
X024240Y013347D02*
X024337Y013444D01*
X024139Y013395D02*
X024139Y013299D01*
X024091Y013250D01*
X023946Y013250D01*
X024042Y013250D02*
X024139Y013154D01*
X023946Y013154D02*
X023946Y013444D01*
X024091Y013444D01*
X024139Y013395D01*
X024041Y012344D02*
X024089Y012295D01*
X024089Y012199D01*
X024041Y012150D01*
X023896Y012150D01*
X023992Y012150D02*
X024089Y012054D01*
X024190Y012054D02*
X024384Y012054D01*
X024287Y012054D02*
X024287Y012344D01*
X024190Y012247D01*
X024041Y012344D02*
X023896Y012344D01*
X023896Y012054D01*
X024485Y012102D02*
X024533Y012054D01*
X024630Y012054D01*
X024678Y012102D01*
X024678Y012150D01*
X024630Y012199D01*
X024582Y012199D01*
X024630Y012199D02*
X024678Y012247D01*
X024678Y012295D01*
X024630Y012344D01*
X024533Y012344D01*
X024485Y012295D01*
X024434Y011294D02*
X024240Y011294D01*
X024139Y011245D02*
X024091Y011294D01*
X023946Y011294D01*
X023946Y011004D01*
X023946Y011100D02*
X024091Y011100D01*
X024139Y011149D01*
X024139Y011245D01*
X024042Y011100D02*
X024139Y011004D01*
X024240Y011004D02*
X024240Y011052D01*
X024434Y011245D01*
X024434Y011294D01*
X023554Y010269D02*
X023616Y010207D01*
X023616Y010084D01*
X023554Y010022D01*
X023554Y009900D02*
X023616Y009839D01*
X023616Y009715D01*
X023554Y009654D01*
X023307Y009654D01*
X023245Y009715D01*
X023245Y009839D01*
X023307Y009900D01*
X023245Y010022D02*
X023430Y010022D01*
X023369Y010145D01*
X023369Y010207D01*
X023430Y010269D01*
X023554Y010269D01*
X023245Y010269D02*
X023245Y010022D01*
X020417Y008824D02*
X020417Y008454D01*
X020479Y008639D02*
X020232Y008639D01*
X020417Y008824D01*
X019987Y008824D02*
X019987Y008454D01*
X019864Y008454D02*
X020111Y008454D01*
X019864Y008700D02*
X019987Y008824D01*
X019742Y008762D02*
X019681Y008824D01*
X019557Y008824D01*
X019496Y008762D01*
X019496Y008515D01*
X019557Y008454D01*
X019681Y008454D01*
X019742Y008515D01*
X019631Y006774D02*
X019507Y006774D01*
X019446Y006712D01*
X019446Y006465D01*
X019507Y006404D01*
X019631Y006404D01*
X019692Y006465D01*
X019814Y006404D02*
X020061Y006404D01*
X019937Y006404D02*
X019937Y006774D01*
X019814Y006650D01*
X019692Y006712D02*
X019631Y006774D01*
X020182Y006774D02*
X020182Y006589D01*
X020306Y006650D01*
X020367Y006650D01*
X020429Y006589D01*
X020429Y006465D01*
X020367Y006404D01*
X020244Y006404D01*
X020182Y006465D01*
X020182Y006774D02*
X020429Y006774D01*
X024096Y004874D02*
X024096Y004504D01*
X024096Y004627D02*
X024281Y004627D01*
X024342Y004689D01*
X024342Y004812D01*
X024281Y004874D01*
X024096Y004874D01*
X024219Y004627D02*
X024342Y004504D01*
X024464Y004504D02*
X024711Y004504D01*
X024587Y004504D02*
X024587Y004874D01*
X024464Y004750D01*
X018429Y010465D02*
X018367Y010404D01*
X018244Y010404D01*
X018182Y010465D01*
X018429Y010712D01*
X018429Y010465D01*
X018182Y010465D02*
X018182Y010712D01*
X018244Y010774D01*
X018367Y010774D01*
X018429Y010712D01*
X018061Y010404D02*
X017814Y010404D01*
X017937Y010404D02*
X017937Y010774D01*
X017814Y010650D01*
X017692Y010712D02*
X017631Y010774D01*
X017507Y010774D01*
X017446Y010712D01*
X017446Y010465D01*
X017507Y010404D01*
X017631Y010404D01*
X017692Y010465D01*
X017971Y012304D02*
X018094Y012304D01*
X018156Y012365D01*
X018277Y012365D02*
X018277Y012304D01*
X018277Y012365D02*
X018524Y012612D01*
X018524Y012674D01*
X018277Y012674D01*
X018156Y012612D02*
X018094Y012674D01*
X017971Y012674D01*
X017909Y012612D01*
X017909Y012365D01*
X017971Y012304D01*
X017002Y012395D02*
X016808Y012202D01*
X016808Y012154D01*
X016707Y012154D02*
X016707Y012444D01*
X016808Y012444D02*
X017002Y012444D01*
X017002Y012395D01*
X016707Y012154D02*
X016514Y012444D01*
X016514Y012154D01*
X016412Y012154D02*
X016316Y012250D01*
X016364Y012250D02*
X016219Y012250D01*
X016219Y012154D02*
X016219Y012444D01*
X016364Y012444D01*
X016412Y012395D01*
X016412Y012299D01*
X016364Y012250D01*
X013702Y012302D02*
X013653Y012254D01*
X013557Y012254D01*
X013508Y012302D01*
X013508Y012399D02*
X013605Y012447D01*
X013653Y012447D01*
X013702Y012399D01*
X013702Y012302D01*
X013508Y012399D02*
X013508Y012544D01*
X013702Y012544D01*
X013407Y012544D02*
X013407Y012254D01*
X013214Y012544D01*
X013214Y012254D01*
X013112Y012254D02*
X013016Y012350D01*
X013064Y012350D02*
X012919Y012350D01*
X012919Y012254D02*
X012919Y012544D01*
X013064Y012544D01*
X013112Y012495D01*
X013112Y012399D01*
X013064Y012350D01*
X011352Y012397D02*
X011158Y012204D01*
X011352Y012204D01*
X011352Y012397D02*
X011352Y012445D01*
X011303Y012494D01*
X011207Y012494D01*
X011158Y012445D01*
X011057Y012494D02*
X011057Y012204D01*
X010864Y012494D01*
X010864Y012204D01*
X010762Y012204D02*
X010666Y012300D01*
X010714Y012300D02*
X010569Y012300D01*
X010569Y012204D02*
X010569Y012494D01*
X010714Y012494D01*
X010762Y012445D01*
X010762Y012349D01*
X010714Y012300D01*
X013525Y010206D02*
X013574Y010254D01*
X013767Y010061D01*
X013816Y010109D01*
X013816Y010206D01*
X013767Y010254D01*
X013574Y010254D01*
X013525Y010206D02*
X013525Y010109D01*
X013574Y010061D01*
X013767Y010061D01*
X013816Y009960D02*
X013816Y009766D01*
X013816Y009863D02*
X013525Y009863D01*
X013622Y009766D01*
X013525Y009665D02*
X013816Y009665D01*
X013525Y009472D01*
X013816Y009472D01*
X013816Y009370D02*
X013719Y009274D01*
X013719Y009322D02*
X013719Y009177D01*
X013816Y009177D02*
X013525Y009177D01*
X013525Y009322D01*
X013574Y009370D01*
X013670Y009370D01*
X013719Y009322D01*
X009874Y007674D02*
X009751Y007612D01*
X009627Y007489D01*
X009812Y007489D01*
X009874Y007427D01*
X009874Y007365D01*
X009812Y007304D01*
X009689Y007304D01*
X009627Y007365D01*
X009627Y007489D01*
X009506Y007612D02*
X009444Y007674D01*
X009321Y007674D01*
X009259Y007612D01*
X009259Y007365D01*
X009321Y007304D01*
X009444Y007304D01*
X009506Y007365D01*
X009481Y006674D02*
X009357Y006674D01*
X009296Y006612D01*
X009296Y006365D01*
X009357Y006304D01*
X009481Y006304D01*
X009542Y006365D01*
X009664Y006365D02*
X009726Y006304D01*
X009849Y006304D01*
X009911Y006365D01*
X009911Y006612D01*
X009849Y006674D01*
X009726Y006674D01*
X009664Y006612D01*
X009664Y006550D01*
X009726Y006489D01*
X009911Y006489D01*
X009542Y006612D02*
X009481Y006674D01*
X013645Y004881D02*
X013645Y004784D01*
X013694Y004735D01*
X013742Y004735D01*
X013790Y004784D01*
X013790Y004929D01*
X013694Y004929D02*
X013645Y004881D01*
X013694Y004929D02*
X013887Y004929D01*
X013936Y004881D01*
X013936Y004784D01*
X013887Y004735D01*
X013936Y004634D02*
X013645Y004634D01*
X013645Y004441D02*
X013936Y004634D01*
X013936Y004441D02*
X013645Y004441D01*
X013694Y004340D02*
X013790Y004340D01*
X013839Y004291D01*
X013839Y004146D01*
X013936Y004146D02*
X013645Y004146D01*
X013645Y004291D01*
X013694Y004340D01*
X013839Y004243D02*
X013936Y004340D01*
X014188Y014584D02*
X014188Y014874D01*
X014333Y014874D01*
X014382Y014825D01*
X014382Y014729D01*
X014333Y014680D01*
X014188Y014680D01*
X014285Y014680D02*
X014382Y014584D01*
X014483Y014584D02*
X014483Y014874D01*
X014676Y014584D01*
X014676Y014874D01*
X014777Y014825D02*
X014826Y014874D01*
X014923Y014874D01*
X014971Y014825D01*
X014971Y014777D01*
X014923Y014729D01*
X014971Y014680D01*
X014971Y014632D01*
X014923Y014584D01*
X014826Y014584D01*
X014777Y014632D01*
X014874Y014729D02*
X014923Y014729D01*
X014988Y015534D02*
X014988Y015824D01*
X015133Y015824D01*
X015182Y015775D01*
X015182Y015679D01*
X015133Y015630D01*
X014988Y015630D01*
X015085Y015630D02*
X015182Y015534D01*
X015283Y015534D02*
X015283Y015824D01*
X015476Y015534D01*
X015476Y015824D01*
X015577Y015679D02*
X015771Y015679D01*
X015723Y015824D02*
X015577Y015679D01*
X015723Y015534D02*
X015723Y015824D01*
X019088Y015574D02*
X019088Y015284D01*
X019088Y015380D02*
X019233Y015380D01*
X019282Y015429D01*
X019282Y015525D01*
X019233Y015574D01*
X019088Y015574D01*
X019185Y015380D02*
X019282Y015284D01*
X019383Y015284D02*
X019383Y015574D01*
X019576Y015284D01*
X019576Y015574D01*
X019677Y015429D02*
X019823Y015429D01*
X019871Y015380D01*
X019871Y015332D01*
X019823Y015284D01*
X019726Y015284D01*
X019677Y015332D01*
X019677Y015429D01*
X019774Y015525D01*
X019871Y015574D01*
X021388Y015124D02*
X021388Y014834D01*
X021388Y014930D02*
X021533Y014930D01*
X021582Y014979D01*
X021582Y015075D01*
X021533Y015124D01*
X021388Y015124D01*
X021485Y014930D02*
X021582Y014834D01*
X021683Y014834D02*
X021683Y015124D01*
X021876Y014834D01*
X021876Y015124D01*
X021977Y015075D02*
X021977Y015027D01*
X022026Y014979D01*
X022123Y014979D01*
X022171Y014930D01*
X022171Y014882D01*
X022123Y014834D01*
X022026Y014834D01*
X021977Y014882D01*
X021977Y014930D01*
X022026Y014979D01*
X022123Y014979D02*
X022171Y015027D01*
X022171Y015075D01*
X022123Y015124D01*
X022026Y015124D01*
X021977Y015075D01*
X022039Y015354D02*
X021942Y015450D01*
X021991Y015450D02*
X021846Y015450D01*
X021846Y015354D02*
X021846Y015644D01*
X021991Y015644D01*
X022039Y015595D01*
X022039Y015499D01*
X021991Y015450D01*
X022140Y015354D02*
X022334Y015354D01*
X022237Y015354D02*
X022237Y015644D01*
X022140Y015547D01*
X022435Y015499D02*
X022580Y015499D01*
X022628Y015450D01*
X022628Y015402D01*
X022580Y015354D01*
X022483Y015354D01*
X022435Y015402D01*
X022435Y015499D01*
X022532Y015595D01*
X022628Y015644D01*
X022946Y015854D02*
X022946Y016144D01*
X023091Y016144D01*
X023139Y016095D01*
X023139Y015999D01*
X023091Y015950D01*
X022946Y015950D01*
X023042Y015950D02*
X023139Y015854D01*
X023240Y015854D02*
X023434Y016047D01*
X023434Y016095D01*
X023385Y016144D01*
X023289Y016144D01*
X023240Y016095D01*
X023240Y015854D02*
X023434Y015854D01*
X023535Y015854D02*
X023728Y015854D01*
X023632Y015854D02*
X023632Y016144D01*
X023535Y016047D01*
X022580Y016504D02*
X022580Y016794D01*
X022435Y016649D01*
X022628Y016649D01*
X022334Y016697D02*
X022334Y016745D01*
X022285Y016794D01*
X022189Y016794D01*
X022140Y016745D01*
X022039Y016745D02*
X022039Y016649D01*
X021991Y016600D01*
X021846Y016600D01*
X021942Y016600D02*
X022039Y016504D01*
X022140Y016504D02*
X022334Y016697D01*
X022334Y016504D02*
X022140Y016504D01*
X022039Y016745D02*
X021991Y016794D01*
X021846Y016794D01*
X021846Y016504D01*
X022946Y017004D02*
X022946Y017294D01*
X023091Y017294D01*
X023139Y017245D01*
X023139Y017149D01*
X023091Y017100D01*
X022946Y017100D01*
X023042Y017100D02*
X023139Y017004D01*
X023240Y017052D02*
X023289Y017004D01*
X023385Y017004D01*
X023434Y017052D01*
X023434Y017100D01*
X023385Y017149D01*
X023337Y017149D01*
X023385Y017149D02*
X023434Y017197D01*
X023434Y017245D01*
X023385Y017294D01*
X023289Y017294D01*
X023240Y017245D01*
X023535Y017294D02*
X023535Y017149D01*
X023632Y017197D01*
X023680Y017197D01*
X023728Y017149D01*
X023728Y017052D01*
X023680Y017004D01*
X023583Y017004D01*
X023535Y017052D01*
X023535Y017294D02*
X023728Y017294D01*
X026520Y017530D02*
X026891Y017530D01*
X026891Y017777D01*
X026891Y017899D02*
X026891Y018145D01*
X026891Y018267D02*
X026520Y018267D01*
X026520Y018452D01*
X026582Y018514D01*
X026829Y018514D01*
X026891Y018452D01*
X026891Y018267D01*
X026705Y018022D02*
X026705Y017899D01*
X026520Y017899D02*
X026891Y017899D01*
X026520Y017899D02*
X026520Y018145D01*
X026644Y018635D02*
X026520Y018759D01*
X026891Y018759D01*
X026891Y018882D02*
X026891Y018635D01*
X026899Y021154D02*
X026899Y021524D01*
X026714Y021339D01*
X026961Y021339D01*
X026592Y021339D02*
X026592Y021462D01*
X026531Y021524D01*
X026346Y021524D01*
X026346Y021154D01*
X026346Y021277D02*
X026531Y021277D01*
X026592Y021339D01*
X026469Y021277D02*
X026592Y021154D01*
X015686Y019352D02*
X015686Y019159D01*
X015686Y019256D02*
X015395Y019256D01*
X015492Y019159D01*
X015686Y019058D02*
X015686Y018864D01*
X015686Y018961D02*
X015395Y018961D01*
X015492Y018864D01*
X015444Y018763D02*
X015395Y018715D01*
X015395Y018618D01*
X015444Y018570D01*
X015637Y018570D01*
X015686Y018618D01*
X015686Y018715D01*
X015637Y018763D01*
X010736Y018811D02*
X010445Y018811D01*
X010542Y018714D01*
X010494Y018613D02*
X010445Y018565D01*
X010445Y018468D01*
X010494Y018420D01*
X010687Y018420D01*
X010736Y018468D01*
X010736Y018565D01*
X010687Y018613D01*
X010736Y018714D02*
X010736Y018908D01*
X010687Y019009D02*
X010736Y019057D01*
X010736Y019154D01*
X010687Y019202D01*
X010639Y019202D01*
X010590Y019154D01*
X010590Y019106D01*
X010590Y019154D02*
X010542Y019202D01*
X010494Y019202D01*
X010445Y019154D01*
X010445Y019057D01*
X010494Y019009D01*
X010105Y014794D02*
X010105Y014504D01*
X010008Y014504D02*
X010202Y014504D01*
X010008Y014697D02*
X010105Y014794D01*
X009907Y014794D02*
X009907Y014504D01*
X009714Y014794D01*
X009714Y014504D01*
X009612Y014504D02*
X009516Y014600D01*
X009564Y014600D02*
X009419Y014600D01*
X009419Y014504D02*
X009419Y014794D01*
X009564Y014794D01*
X009612Y014745D01*
X009612Y014649D01*
X009564Y014600D01*
D16*
X023549Y018907D02*
X025912Y018907D01*
X025912Y021270D01*
X023549Y021270D01*
X023549Y018907D01*
X024042Y020089D02*
X024044Y020141D01*
X024050Y020193D01*
X024060Y020244D01*
X024073Y020294D01*
X024091Y020344D01*
X024112Y020391D01*
X024136Y020437D01*
X024165Y020481D01*
X024196Y020523D01*
X024230Y020562D01*
X024267Y020599D01*
X024307Y020632D01*
X024350Y020663D01*
X024394Y020690D01*
X024440Y020714D01*
X024489Y020734D01*
X024538Y020750D01*
X024589Y020763D01*
X024640Y020772D01*
X024692Y020777D01*
X024744Y020778D01*
X024796Y020775D01*
X024848Y020768D01*
X024899Y020757D01*
X024949Y020743D01*
X024998Y020724D01*
X025045Y020702D01*
X025090Y020677D01*
X025134Y020648D01*
X025175Y020616D01*
X025214Y020581D01*
X025249Y020543D01*
X025282Y020502D01*
X025312Y020460D01*
X025338Y020415D01*
X025361Y020368D01*
X025380Y020319D01*
X025396Y020269D01*
X025408Y020219D01*
X025416Y020167D01*
X025420Y020115D01*
X025420Y020063D01*
X025416Y020011D01*
X025408Y019959D01*
X025396Y019909D01*
X025380Y019859D01*
X025361Y019810D01*
X025338Y019763D01*
X025312Y019718D01*
X025282Y019676D01*
X025249Y019635D01*
X025214Y019597D01*
X025175Y019562D01*
X025134Y019530D01*
X025090Y019501D01*
X025045Y019476D01*
X024998Y019454D01*
X024949Y019435D01*
X024899Y019421D01*
X024848Y019410D01*
X024796Y019403D01*
X024744Y019400D01*
X024692Y019401D01*
X024640Y019406D01*
X024589Y019415D01*
X024538Y019428D01*
X024489Y019444D01*
X024440Y019464D01*
X024394Y019488D01*
X024350Y019515D01*
X024307Y019546D01*
X024267Y019579D01*
X024230Y019616D01*
X024196Y019655D01*
X024165Y019697D01*
X024136Y019741D01*
X024112Y019787D01*
X024091Y019834D01*
X024073Y019884D01*
X024060Y019934D01*
X024050Y019985D01*
X024044Y020037D01*
X024042Y020089D01*
D17*
X026399Y019272D02*
X026581Y019272D01*
X026489Y019394D01*
X026581Y019272D02*
X026762Y019272D01*
X026667Y019394D02*
X026591Y019278D01*
M02*
