%
M48
M72
T01C0.0236
T02C0.0276
T03C0.0280
T04C0.0320
T05C0.0400
%
T01
X9881Y6939
X10981Y5989
X12781Y5139
X15431Y5089
X15781Y4639
X16631Y4839
X16331Y7089
X15231Y8039
X15231Y8839
X15331Y9389
X13581Y8689
X12731Y8639
X11781Y9739
X12181Y10139
X12481Y10589
X13731Y10939
X15181Y11789
X15281Y10939
X13881Y12639
X12531Y14189
X11431Y12489
X10031Y14139
X8081Y15839
X10531Y16989
X11831Y17239
X11831Y17939
X12831Y18289
X14831Y17339
X15531Y17039
X16231Y17489
X16831Y18389
X17831Y18339
X19831Y17339
X17481Y15139
X17681Y14539
X18131Y14139
X17581Y13489
X18981Y12589
X20081Y13289
X20181Y11989
X21531Y12089
X22681Y11789
X23181Y13339
X24981Y13839
X24931Y15439
X24881Y16539
X23681Y17839
X26031Y19189
X22181Y14689
X21681Y14789
X21181Y14689
X17831Y11189
X18581Y10539
X20531Y9889
X20181Y9089
X22281Y10039
X23081Y9789
X24281Y9939
X23681Y7639
X20831Y6039
X10981Y8189
X10981Y9589
X15681Y14239
X9631Y19189
X10831Y20239
X12831Y20189
X13831Y19839
X17831Y19889
X18831Y19839
X7581Y18189
X6131Y17889
X4831Y17289
X5431Y16389
X7081Y19789
T02
X3431Y1939
X26081Y1989
X3431Y21089
T03
X4331Y8189
X5031Y8189
X5031Y6189
X4331Y6189
X4331Y3589
X5031Y3589
T04
X6431Y3189
X6431Y4189
X6431Y6189
X6431Y7189
X6431Y8189
T05
X10431Y2089
X11431Y2089
X12431Y2089
X13431Y2089
X14431Y2089
X15431Y2089
X17431Y2089
X18431Y2089
X19431Y2089
X20431Y2089
X21431Y2089
X22431Y2089
X22431Y21089
X21431Y21089
X20431Y21089
X19431Y21089
X18431Y21089
X17431Y21089
X16431Y21089
X15431Y21089
X13831Y21089
X12831Y21089
X11831Y21089
X10831Y21089
X9831Y21089
X8831Y21089
X7831Y21089
X6831Y21089
M30
