G75*
G70*
%OFA0B0*%
%FSLAX24Y24*%
%IPPOS*%
%LPD*%
%AMOC8*
5,1,8,0,0,1.08239X$1,22.5*
%
%ADD10C,0.0600*%
%ADD11C,0.0480*%
%ADD12OC8,0.0460*%
%ADD13C,0.0460*%
%ADD14R,0.1378X0.0669*%
%ADD15R,0.0250X0.0500*%
%ADD16R,0.0394X0.0433*%
%ADD17R,0.0433X0.0394*%
%ADD18R,0.0260X0.0800*%
%ADD19R,0.0236X0.0315*%
%ADD20R,0.0197X0.0315*%
%ADD21R,0.0512X0.0610*%
%ADD22R,0.0315X0.0315*%
%ADD23R,0.0551X0.0394*%
%ADD24R,0.0315X0.0236*%
%ADD25R,0.0315X0.0197*%
%ADD26C,0.0160*%
%ADD27C,0.0376*%
%ADD28R,0.1000X0.1000*%
%ADD29C,0.0320*%
%ADD30C,0.0100*%
D10*
X010431Y001789D02*
X010431Y002389D01*
X011431Y002389D02*
X011431Y001789D01*
X012431Y001789D02*
X012431Y002389D01*
X013431Y002389D02*
X013431Y001789D01*
X014431Y001789D02*
X014431Y002389D01*
X015431Y002389D02*
X015431Y001789D01*
X017431Y001789D02*
X017431Y002389D01*
X018431Y002389D02*
X018431Y001789D01*
X019431Y001789D02*
X019431Y002389D01*
X020431Y002389D02*
X020431Y001789D01*
X021431Y001789D02*
X021431Y002389D01*
X022431Y002389D02*
X022431Y001789D01*
X022431Y020789D02*
X022431Y021389D01*
X021431Y021389D02*
X021431Y020789D01*
X020431Y020789D02*
X020431Y021389D01*
X019431Y021389D02*
X019431Y020789D01*
X018431Y020789D02*
X018431Y021389D01*
X017431Y021389D02*
X017431Y020789D01*
X016431Y020789D02*
X016431Y021389D01*
X015431Y021389D02*
X015431Y020789D01*
X013831Y020789D02*
X013831Y021389D01*
X012831Y021389D02*
X012831Y020789D01*
X011831Y020789D02*
X011831Y021389D01*
X010831Y021389D02*
X010831Y020789D01*
X009831Y020789D02*
X009831Y021389D01*
X008831Y021389D02*
X008831Y020789D01*
X007831Y020789D02*
X007831Y021389D01*
X006831Y021389D02*
X006831Y020789D01*
D11*
X006671Y008189D02*
X006191Y008189D01*
X006191Y007189D02*
X006671Y007189D01*
X006671Y006189D02*
X006191Y006189D01*
X006191Y004189D02*
X006671Y004189D01*
X006671Y003189D02*
X006191Y003189D01*
D12*
X005031Y003589D03*
X005031Y006189D03*
X004331Y008189D03*
D13*
X005031Y008189D03*
X004331Y006189D03*
X004331Y003589D03*
D14*
X026201Y004108D03*
X026201Y005189D03*
X026201Y006269D03*
X026201Y007348D03*
X026201Y008429D03*
X026201Y009508D03*
X026201Y010589D03*
X026201Y011669D03*
X026201Y012748D03*
X026201Y013829D03*
X026201Y014908D03*
X026201Y015989D03*
X026201Y017069D03*
D15*
X022531Y012789D03*
X022031Y012789D03*
X021531Y012789D03*
X021031Y012789D03*
X020531Y012789D03*
X020031Y012789D03*
X019531Y012789D03*
X019531Y010589D03*
X020031Y010589D03*
X020531Y010589D03*
X021031Y010589D03*
X021531Y010589D03*
X022031Y010589D03*
X022531Y010589D03*
X014781Y007989D03*
X014281Y007989D03*
X013781Y007989D03*
X013281Y007989D03*
X012781Y007989D03*
X012281Y007989D03*
X011781Y007989D03*
X011781Y005789D03*
X012281Y005789D03*
X012781Y005789D03*
X013281Y005789D03*
X013781Y005789D03*
X014281Y005789D03*
X014781Y005789D03*
X009081Y016539D03*
X008581Y016539D03*
X008081Y016539D03*
X007581Y016539D03*
X007081Y016539D03*
X006581Y016539D03*
X006081Y016539D03*
X006081Y018739D03*
X006581Y018739D03*
X007081Y018739D03*
X007581Y018739D03*
X008081Y018739D03*
X008581Y018739D03*
X009081Y018739D03*
D16*
X010531Y018123D03*
X010531Y017454D03*
X015531Y017604D03*
X015531Y018273D03*
X022946Y016539D03*
X023615Y016539D03*
X024096Y017089D03*
X024765Y017089D03*
X024765Y015989D03*
X024096Y015989D03*
X023615Y015439D03*
X022946Y015439D03*
X023946Y012789D03*
X024615Y012789D03*
X024565Y011689D03*
X023896Y011689D03*
X023181Y011273D03*
X023181Y010604D03*
X023946Y010639D03*
X024615Y010639D03*
X024765Y004139D03*
X024096Y004139D03*
X005431Y017254D03*
X005431Y017923D03*
D17*
X018396Y011989D03*
X019065Y011989D03*
X019065Y011189D03*
X018396Y011189D03*
X020846Y008639D03*
X021515Y008639D03*
X021515Y006539D03*
X020846Y006539D03*
X010965Y006489D03*
X010296Y006489D03*
X010296Y007389D03*
X010965Y007389D03*
X026581Y020154D03*
X026581Y020823D03*
D18*
X019831Y019049D03*
X019331Y019049D03*
X018831Y019049D03*
X018331Y019049D03*
X017831Y019049D03*
X017331Y019049D03*
X016831Y019049D03*
X016331Y019049D03*
X014831Y018949D03*
X014331Y018949D03*
X013831Y018949D03*
X013331Y018949D03*
X012831Y018949D03*
X012331Y018949D03*
X011831Y018949D03*
X011331Y018949D03*
X011331Y016529D03*
X011831Y016529D03*
X012331Y016529D03*
X012831Y016529D03*
X013331Y016529D03*
X013831Y016529D03*
X014331Y016529D03*
X014831Y016529D03*
X016331Y016629D03*
X016831Y016629D03*
X017331Y016629D03*
X017831Y016629D03*
X018331Y016629D03*
X018831Y016629D03*
X019331Y016629D03*
X019831Y016629D03*
D19*
X018883Y015734D03*
X018883Y015143D03*
X017879Y015143D03*
X017879Y015734D03*
X017083Y015634D03*
X017083Y015043D03*
X016079Y015043D03*
X016079Y015634D03*
X013883Y015434D03*
X013883Y014843D03*
X012879Y014843D03*
X012879Y015434D03*
X011433Y015334D03*
X011433Y014743D03*
X010429Y014743D03*
X010429Y015334D03*
X010429Y013684D03*
X010429Y013093D03*
X011433Y013093D03*
X011433Y013684D03*
X012879Y013684D03*
X012879Y013093D03*
X013883Y013093D03*
X013883Y013684D03*
X016079Y013784D03*
X016079Y013193D03*
X017083Y013193D03*
X017083Y013784D03*
X021029Y013643D03*
X021029Y014234D03*
X022033Y014234D03*
X022033Y013643D03*
D20*
X021688Y013643D03*
X021373Y013643D03*
X021373Y014234D03*
X021688Y014234D03*
X018538Y015143D03*
X018223Y015143D03*
X018223Y015734D03*
X018538Y015734D03*
X016738Y015634D03*
X016423Y015634D03*
X016423Y015043D03*
X016738Y015043D03*
X016738Y013784D03*
X016423Y013784D03*
X016423Y013193D03*
X016738Y013193D03*
X013538Y013093D03*
X013223Y013093D03*
X013223Y013684D03*
X013538Y013684D03*
X013538Y014843D03*
X013223Y014843D03*
X013223Y015434D03*
X013538Y015434D03*
X011088Y015334D03*
X010773Y015334D03*
X010773Y014743D03*
X011088Y014743D03*
X011088Y013684D03*
X010773Y013684D03*
X010773Y013093D03*
X011088Y013093D03*
D21*
X023845Y018524D03*
X025616Y018524D03*
X025616Y021653D03*
X023845Y021653D03*
D22*
X026581Y019634D03*
X026581Y019043D03*
D23*
X020847Y008013D03*
X020847Y007264D03*
X021714Y007639D03*
D24*
X014776Y009237D03*
X014185Y009237D03*
X014185Y010240D03*
X014776Y010240D03*
X014826Y005090D03*
X014235Y005090D03*
X014235Y004087D03*
X014826Y004087D03*
D25*
X014826Y004431D03*
X014826Y004746D03*
X014235Y004746D03*
X014235Y004431D03*
X014185Y009581D03*
X014185Y009896D03*
X014776Y009896D03*
X014776Y009581D03*
D26*
X015138Y009581D01*
X015331Y009389D01*
X015381Y009389D01*
X016331Y008439D01*
X016331Y007089D01*
X016981Y006339D02*
X016981Y011589D01*
X021181Y015989D01*
X024096Y015989D01*
X024765Y015989D02*
X026201Y015989D01*
X026201Y017069D02*
X024785Y017069D01*
X024765Y017089D01*
X024881Y016539D02*
X023615Y016539D01*
X022946Y016539D02*
X021331Y016539D01*
X016831Y011789D01*
X015681Y011789D01*
X015731Y011739D01*
X015731Y010139D01*
X015488Y009896D01*
X014776Y009896D01*
X014776Y010240D02*
X014776Y010934D01*
X014781Y010939D01*
X015281Y010939D01*
X014776Y010240D02*
X014776Y011984D01*
X014931Y012139D01*
X016831Y012139D01*
X021131Y016739D01*
X021481Y017089D01*
X024096Y017089D01*
X023681Y017839D02*
X023531Y017889D01*
X023331Y018089D01*
X023331Y019189D01*
X023081Y019439D01*
X020231Y019439D01*
X019981Y019689D01*
X019631Y019689D01*
X019081Y020239D01*
X018931Y020239D01*
X018431Y020739D01*
X018431Y021089D01*
X018331Y020289D02*
X018331Y019049D01*
X017831Y019049D02*
X017831Y018339D01*
X017331Y019049D02*
X017331Y019589D01*
X017281Y019639D01*
X014981Y019639D01*
X014831Y019489D01*
X014831Y018949D01*
X014381Y018899D02*
X014331Y018949D01*
X014331Y018289D01*
X014381Y018239D01*
X015496Y018239D01*
X015531Y018273D01*
X016265Y018273D01*
X016600Y017939D01*
X019181Y017939D01*
X019331Y018089D01*
X019331Y019049D01*
X018831Y019049D02*
X018831Y019839D01*
X018331Y020289D02*
X013831Y020289D01*
X013331Y020289D01*
X013331Y018949D01*
X013831Y018949D02*
X013831Y019839D01*
X013931Y019939D01*
X017781Y019939D01*
X017831Y019889D01*
X016831Y019049D02*
X016831Y018389D01*
X016331Y018339D02*
X016331Y019049D01*
X016331Y018339D02*
X016265Y018273D01*
X015531Y017604D02*
X015531Y017039D01*
X015981Y017239D02*
X015981Y015989D01*
X016079Y015890D01*
X016079Y015634D01*
X016423Y015634D02*
X016423Y015896D01*
X016331Y015989D01*
X016331Y016629D01*
X016831Y016629D02*
X016831Y015989D01*
X016738Y015896D01*
X016738Y015634D01*
X017083Y015634D02*
X017083Y015740D01*
X017331Y015989D01*
X017331Y016629D01*
X017831Y016629D02*
X017831Y015939D01*
X017879Y015890D01*
X017879Y015734D01*
X018223Y015734D02*
X018223Y015931D01*
X018331Y016039D01*
X018331Y016629D01*
X018831Y016629D02*
X018831Y016239D01*
X018538Y015946D01*
X018538Y015734D01*
X018538Y015143D02*
X018531Y015136D01*
X018531Y014439D01*
X018231Y014139D01*
X018131Y014139D01*
X018031Y014539D02*
X017681Y014539D01*
X018031Y014539D02*
X018231Y014739D01*
X018231Y015136D01*
X018223Y015143D01*
X017879Y015143D02*
X017874Y015139D01*
X017481Y015139D01*
X017083Y015043D02*
X017081Y015041D01*
X017081Y014639D01*
X017331Y014389D01*
X017331Y014139D01*
X017581Y013889D01*
X017581Y013489D01*
X017335Y013193D01*
X017083Y013193D01*
X016079Y013193D02*
X015826Y013193D01*
X015681Y013339D01*
X015681Y014239D01*
X013926Y014843D02*
X013883Y014843D01*
X013883Y015434D02*
X013881Y015436D01*
X013881Y015739D01*
X014331Y016189D01*
X014331Y016529D01*
X014831Y016529D02*
X014831Y017339D01*
X014381Y017839D02*
X014381Y018239D01*
X014381Y018899D01*
X014381Y017839D02*
X014181Y017589D01*
X011481Y017589D01*
X011331Y017789D01*
X011331Y018949D01*
X011331Y018289D01*
X011165Y018123D01*
X010531Y018089D02*
X010531Y018123D01*
X010531Y017454D02*
X010531Y016989D01*
X010971Y016529D02*
X010781Y016339D01*
X010781Y015341D01*
X010773Y015334D01*
X011088Y015334D02*
X011088Y015796D01*
X011131Y015839D01*
X011631Y015839D01*
X011831Y016039D01*
X011831Y016529D01*
X012331Y016529D02*
X012331Y015889D01*
X011776Y015334D01*
X011433Y015334D01*
X010429Y015334D02*
X010429Y015790D01*
X010431Y016089D01*
X010431Y016289D01*
X011131Y017239D01*
X011831Y017239D01*
X011831Y017939D02*
X011831Y018949D01*
X012331Y018949D02*
X012331Y019489D01*
X012431Y019589D01*
X012831Y019589D01*
X012831Y020189D01*
X012331Y019989D02*
X012331Y020589D01*
X012831Y021089D01*
X013831Y021089D02*
X013831Y020289D01*
X012331Y019989D02*
X011931Y019589D01*
X009781Y019589D01*
X009631Y019439D01*
X009631Y019189D01*
X009081Y018739D02*
X009081Y018089D01*
X008081Y018739D02*
X008081Y019889D01*
X011831Y019889D01*
X011831Y021089D01*
X010831Y021089D02*
X010831Y020239D01*
X012831Y018949D02*
X012831Y018289D01*
X012831Y016529D02*
X012831Y015789D01*
X012879Y015740D01*
X012879Y015434D01*
X013223Y015434D02*
X013231Y015441D01*
X013231Y015889D01*
X013331Y015989D01*
X013331Y016529D01*
X013831Y016529D02*
X013831Y016089D01*
X013531Y015789D01*
X013531Y015441D01*
X013538Y015434D01*
X012531Y014189D02*
X012531Y013289D01*
X012726Y013093D01*
X012879Y013093D01*
X013881Y013091D02*
X013881Y012639D01*
X013881Y013091D02*
X013883Y013093D01*
X015181Y011789D02*
X015681Y011789D01*
X017231Y011439D02*
X017231Y005439D01*
X016631Y004839D01*
X016631Y003889D01*
X016481Y003739D01*
X012881Y003739D01*
X011781Y004839D01*
X011781Y005789D01*
X012281Y005789D02*
X012281Y004839D01*
X012688Y004431D01*
X014235Y004431D01*
X014235Y004087D01*
X014826Y004087D02*
X016129Y004087D01*
X016181Y004139D01*
X016181Y005789D01*
X016981Y006339D01*
X016181Y005789D02*
X014781Y005789D01*
X014826Y005789D01*
X014826Y005090D01*
X014826Y004746D02*
X015088Y004746D01*
X015431Y005089D01*
X015781Y004639D02*
X015573Y004431D01*
X014826Y004431D01*
X014235Y004746D02*
X014235Y005090D01*
X014235Y005789D01*
X014281Y005789D01*
X013781Y005789D02*
X013781Y006489D01*
X013931Y006639D01*
X014831Y006639D01*
X015231Y007039D01*
X015231Y008039D01*
X014781Y007989D02*
X014781Y008789D01*
X014831Y008839D01*
X015231Y008839D01*
X014781Y008789D02*
X014781Y009232D01*
X014776Y009237D01*
X014185Y009237D02*
X014185Y009581D01*
X014185Y009896D02*
X012538Y009896D01*
X012281Y009639D01*
X012281Y007989D01*
X011781Y007989D02*
X011781Y009739D01*
X012181Y010139D02*
X008731Y010139D01*
X008731Y015139D01*
X008681Y015189D01*
X007381Y015189D01*
X007081Y015489D01*
X007081Y016539D01*
X007581Y016539D02*
X007581Y017039D01*
X007631Y017089D01*
X008481Y017089D01*
X008581Y016989D01*
X008581Y016539D01*
X008581Y016939D01*
X008731Y017089D01*
X009281Y017089D01*
X009431Y016889D01*
X009481Y016839D01*
X009481Y015339D01*
X009231Y015089D01*
X009231Y010939D01*
X013731Y010939D01*
X014185Y010240D02*
X014185Y009896D01*
X014185Y009237D02*
X014185Y008484D01*
X014281Y008389D01*
X014281Y007989D01*
X013781Y007989D02*
X013781Y008439D01*
X013581Y008689D01*
X012781Y008589D02*
X012731Y008639D01*
X012781Y008589D02*
X012781Y007989D01*
X013281Y007989D02*
X013281Y007489D01*
X013131Y007339D01*
X011015Y007339D01*
X010965Y007389D01*
X010965Y008173D01*
X010981Y008189D01*
X010981Y009589D01*
X012481Y010589D02*
X008981Y010589D01*
X008981Y015189D01*
X009081Y015489D01*
X009081Y016539D01*
X008081Y016539D02*
X008081Y015839D01*
X006581Y016539D02*
X006581Y017254D01*
X006131Y017889D02*
X006096Y017923D01*
X005431Y017923D01*
X005415Y017289D02*
X004831Y017289D01*
X005415Y017289D02*
X005431Y017254D01*
X006081Y016539D02*
X006081Y016389D01*
X005431Y016389D01*
X006081Y016489D02*
X006081Y016539D01*
X007581Y018189D02*
X007581Y018739D01*
X007581Y019989D01*
X007781Y020189D01*
X008731Y020189D01*
X008831Y020289D01*
X008831Y021089D01*
X007081Y019789D02*
X007081Y018739D01*
X010971Y016529D02*
X011331Y016529D01*
X010031Y014139D02*
X010031Y013239D01*
X010176Y013093D01*
X010429Y013093D01*
X011431Y013091D02*
X011431Y012489D01*
X011431Y013091D02*
X011433Y013093D01*
X017231Y011439D02*
X021031Y015489D01*
X022881Y015489D01*
X022931Y015439D01*
X022946Y015439D01*
X022531Y015189D02*
X022931Y014789D01*
X023681Y014789D01*
X023931Y014539D01*
X023931Y012804D01*
X023946Y012789D01*
X023331Y012639D02*
X023331Y011789D01*
X023431Y011689D01*
X023896Y011689D01*
X024565Y011689D02*
X026181Y011689D01*
X026201Y011669D01*
X026151Y010639D02*
X026201Y010589D01*
X026151Y010639D02*
X024615Y010639D01*
X023946Y010639D02*
X023931Y010623D01*
X023931Y010089D01*
X023431Y009439D01*
X020031Y009439D01*
X020031Y010589D01*
X019531Y010589D01*
X019065Y011189D02*
X018715Y010554D01*
X018581Y010539D01*
X018396Y011189D02*
X017831Y011189D01*
X018396Y011189D02*
X018396Y011539D01*
X018446Y011589D01*
X021581Y011589D01*
X021896Y011273D01*
X022631Y011273D01*
X022681Y011323D01*
X022681Y011789D01*
X022631Y011273D02*
X023181Y011273D01*
X023181Y010604D02*
X022531Y010604D01*
X022531Y010589D01*
X022031Y010589D01*
X022031Y010289D01*
X022281Y010039D01*
X022431Y009689D02*
X022681Y009789D01*
X023081Y009789D01*
X022431Y009689D02*
X021731Y009689D01*
X021531Y010039D01*
X021531Y010589D01*
X021031Y010589D02*
X021031Y011139D01*
X020981Y011189D01*
X019065Y011189D01*
X018396Y011539D02*
X018396Y011989D01*
X019065Y011989D02*
X019065Y012504D01*
X018981Y012589D01*
X019531Y012789D02*
X019531Y013539D01*
X020031Y014039D01*
X021131Y015189D01*
X022531Y015189D01*
X022181Y014689D02*
X022033Y014540D01*
X022033Y014234D01*
X021688Y014234D02*
X021688Y014781D01*
X021681Y014789D01*
X021373Y014496D02*
X021181Y014689D01*
X021373Y014496D02*
X021373Y014234D01*
X021373Y013643D02*
X021029Y013643D01*
X021373Y013643D02*
X021688Y013643D01*
X022033Y013643D01*
X022876Y013643D01*
X023181Y013339D01*
X023181Y012789D02*
X022531Y012789D01*
X022031Y012789D01*
X021531Y012789D02*
X021531Y012089D01*
X021031Y012139D02*
X021031Y012789D01*
X020531Y012789D02*
X020531Y013289D01*
X020081Y013289D01*
X020031Y012789D02*
X019531Y012789D01*
X019065Y011989D02*
X019081Y011954D01*
X019065Y011989D02*
X020181Y011989D01*
X020881Y011989D01*
X021031Y012139D01*
X020531Y010589D02*
X020531Y009889D01*
X020181Y009089D02*
X020181Y008639D01*
X020231Y008589D01*
X020831Y008605D01*
X020847Y008439D01*
X020847Y008637D01*
X020846Y008639D01*
X020847Y008439D02*
X020847Y008013D01*
X021515Y008354D02*
X021731Y008139D01*
X021731Y007689D01*
X021781Y007639D01*
X023681Y007639D01*
X021731Y007655D02*
X021714Y007639D01*
X021714Y007222D01*
X021531Y007039D01*
X021531Y006554D01*
X021515Y006539D01*
X020846Y006539D02*
X020831Y006523D01*
X020831Y006039D01*
X020846Y006539D02*
X020846Y007263D01*
X020847Y007264D01*
X021731Y007655D02*
X021731Y007689D01*
X021515Y008354D02*
X021515Y008639D01*
X024096Y009754D02*
X024281Y009939D01*
X024096Y009754D02*
X024096Y004139D01*
X024765Y004139D02*
X024815Y004139D01*
X024845Y004108D01*
X026201Y004108D01*
X026201Y012748D02*
X024655Y012748D01*
X024615Y012789D01*
X023331Y012639D02*
X023181Y012789D01*
X024981Y013839D02*
X024990Y013829D01*
X026201Y013829D01*
X024931Y015439D02*
X023615Y015439D01*
X019831Y016629D02*
X019831Y017339D01*
X020331Y019789D02*
X023331Y019789D01*
X023831Y019289D01*
X023831Y018538D01*
X023845Y018524D01*
X025616Y018524D02*
X025616Y019124D01*
X025631Y019139D01*
X025981Y019139D01*
X026031Y019189D01*
X026176Y019043D01*
X026581Y019043D01*
X026581Y019634D02*
X026581Y020154D01*
X026546Y020789D02*
X025831Y020789D01*
X025131Y020089D01*
X020881Y020089D01*
X020431Y020539D01*
X020431Y021089D01*
X019431Y021089D02*
X019431Y020689D01*
X020331Y019789D01*
X016231Y017489D02*
X015981Y017239D01*
X026546Y020789D02*
X026581Y020823D01*
X026565Y020839D01*
X010296Y007389D02*
X010296Y006939D01*
X009881Y006939D01*
X010296Y006939D02*
X010296Y006489D01*
X010281Y006473D01*
X010281Y005489D01*
X010431Y005339D01*
X011181Y005339D01*
X011381Y005539D01*
X011381Y006089D01*
X011481Y006189D01*
X012631Y006189D01*
X012781Y006039D01*
X012781Y005789D01*
X012781Y005139D01*
X013281Y005789D02*
X013281Y006339D01*
X013131Y006489D01*
X010965Y006489D01*
X010965Y006004D01*
X010981Y005989D01*
D27*
X010981Y005989D03*
X009881Y006939D03*
X010981Y008189D03*
X010981Y009589D03*
X011781Y009739D03*
X012181Y010139D03*
X012481Y010589D03*
X013731Y010939D03*
X015181Y011789D03*
X015281Y010939D03*
X015331Y009389D03*
X015231Y008839D03*
X015231Y008039D03*
X016331Y007089D03*
X015431Y005089D03*
X015781Y004639D03*
X016631Y004839D03*
X012781Y005139D03*
X012731Y008639D03*
X013581Y008689D03*
X017831Y011189D03*
X018581Y010539D03*
X020531Y009889D03*
X020181Y009089D03*
X022281Y010039D03*
X023081Y009789D03*
X024281Y009939D03*
X022681Y011789D03*
X021531Y012089D03*
X020181Y011989D03*
X018981Y012589D03*
X020081Y013289D03*
X021181Y014689D03*
X021681Y014789D03*
X022181Y014689D03*
X023181Y013339D03*
X024981Y013839D03*
X024931Y015439D03*
X024881Y016539D03*
X023681Y017839D03*
X026031Y019189D03*
X019831Y017339D03*
X017831Y018339D03*
X016831Y018389D03*
X016231Y017489D03*
X015531Y017039D03*
X014831Y017339D03*
X012831Y018289D03*
X011831Y017939D03*
X011831Y017239D03*
X010531Y016989D03*
X008081Y015839D03*
X010031Y014139D03*
X011431Y012489D03*
X013881Y012639D03*
X012531Y014189D03*
X015681Y014239D03*
X017481Y015139D03*
X017681Y014539D03*
X018131Y014139D03*
X017581Y013489D03*
X023681Y007639D03*
X020831Y006039D03*
X005431Y016389D03*
X004831Y017289D03*
X006131Y017889D03*
X007581Y018189D03*
X007081Y019789D03*
X009631Y019189D03*
X010831Y020239D03*
X012831Y020189D03*
X013831Y019839D03*
X017831Y019889D03*
X018831Y019839D03*
D28*
X003431Y001939D03*
X026081Y001989D03*
X003431Y021089D03*
D29*
X006581Y017739D02*
X009081Y017739D01*
X009081Y018089D01*
X010531Y018089D01*
X010531Y018123D02*
X011165Y018123D01*
X006581Y017739D02*
X006581Y017254D01*
X005431Y017254D01*
D30*
X005132Y016766D02*
X005025Y016659D01*
X004952Y016484D01*
X004952Y016293D01*
X005025Y016118D01*
X005160Y015983D01*
X005335Y015910D01*
X005526Y015910D01*
X005701Y015983D01*
X005737Y016019D01*
X005850Y016019D01*
X005898Y015999D01*
X006263Y015999D01*
X006331Y016026D01*
X006398Y015999D01*
X006711Y015999D01*
X006711Y015415D01*
X006767Y015279D01*
X006871Y015175D01*
X007171Y014875D01*
X007307Y014819D01*
X007454Y014819D01*
X008361Y014819D01*
X008361Y010065D01*
X008417Y009929D01*
X008521Y009825D01*
X008657Y009769D01*
X008804Y009769D01*
X010538Y009769D01*
X010502Y009684D01*
X010502Y009493D01*
X010575Y009318D01*
X010611Y009282D01*
X010611Y008495D01*
X010575Y008459D01*
X010502Y008284D01*
X010502Y008093D01*
X010575Y007918D01*
X010595Y007898D01*
X010595Y007865D01*
X010570Y007875D01*
X010022Y007875D01*
X009915Y007831D01*
X009834Y007750D01*
X009789Y007643D01*
X009789Y007417D01*
X009785Y007417D01*
X009610Y007344D01*
X009475Y007209D01*
X009402Y007034D01*
X009402Y006843D01*
X009475Y006668D01*
X009610Y006533D01*
X009785Y006460D01*
X009789Y006460D01*
X009789Y006234D01*
X009834Y006127D01*
X009911Y006050D01*
X009911Y005415D01*
X009967Y005279D01*
X010071Y005175D01*
X010221Y005025D01*
X010357Y004969D01*
X010504Y004969D01*
X011254Y004969D01*
X011390Y005025D01*
X011411Y005045D01*
X011411Y004765D01*
X011467Y004629D01*
X011571Y004525D01*
X012671Y003425D01*
X012807Y003369D01*
X012954Y003369D01*
X016554Y003369D01*
X016690Y003425D01*
X016794Y003529D01*
X016944Y003679D01*
X017001Y003815D01*
X017001Y003962D01*
X017001Y004532D01*
X017036Y004568D01*
X017109Y004743D01*
X017109Y004793D01*
X017544Y005229D01*
X017601Y005365D01*
X017601Y005512D01*
X017601Y010766D01*
X017735Y010710D01*
X017926Y010710D01*
X018014Y010747D01*
X018015Y010746D01*
X018122Y010702D01*
X018131Y010702D01*
X018102Y010634D01*
X018102Y010443D01*
X018175Y010268D01*
X018310Y010133D01*
X018485Y010060D01*
X018676Y010060D01*
X018851Y010133D01*
X018986Y010268D01*
X019004Y010311D01*
X019024Y010348D01*
X019051Y010381D01*
X019059Y010412D01*
X019116Y010514D01*
X019116Y010281D01*
X019160Y010174D01*
X019241Y010093D01*
X019348Y010049D01*
X019661Y010049D01*
X019661Y009512D01*
X019661Y009365D01*
X019717Y009229D01*
X019720Y009226D01*
X019702Y009184D01*
X019702Y008993D01*
X019775Y008818D01*
X019811Y008782D01*
X019811Y008712D01*
X019811Y008565D01*
X019867Y008429D01*
X019921Y008375D01*
X019923Y008370D01*
X019973Y008323D01*
X020021Y008275D01*
X020026Y008273D01*
X020030Y008269D01*
X020094Y008245D01*
X020157Y008219D01*
X020162Y008219D01*
X020167Y008217D01*
X020236Y008219D01*
X020282Y008219D01*
X020282Y007758D01*
X020326Y007651D01*
X020339Y007638D01*
X020326Y007626D01*
X020282Y007519D01*
X020282Y007010D01*
X020326Y006903D01*
X020368Y006862D01*
X020339Y006793D01*
X020339Y006284D01*
X020377Y006193D01*
X020352Y006134D01*
X020352Y005943D01*
X020425Y005768D01*
X020560Y005633D01*
X020735Y005560D01*
X020926Y005560D01*
X021101Y005633D01*
X021236Y005768D01*
X021309Y005943D01*
X021309Y006052D01*
X021789Y006052D01*
X021896Y006096D01*
X021978Y006177D01*
X022022Y006284D01*
X022022Y006793D01*
X021978Y006900D01*
X021946Y006931D01*
X022027Y007012D01*
X022084Y007148D01*
X022084Y007167D01*
X022153Y007196D01*
X022226Y007269D01*
X023374Y007269D01*
X023410Y007233D01*
X023585Y007160D01*
X023726Y007160D01*
X023726Y004592D01*
X023653Y004519D01*
X023609Y004413D01*
X023609Y003864D01*
X023653Y003758D01*
X023735Y003676D01*
X023841Y003632D01*
X024350Y003632D01*
X024431Y003665D01*
X024511Y003632D01*
X025020Y003632D01*
X025126Y003676D01*
X025189Y003738D01*
X025222Y003738D01*
X025222Y003716D01*
X025266Y003609D01*
X025347Y003528D01*
X025454Y003484D01*
X026231Y003484D01*
X026231Y002778D01*
X025523Y002778D01*
X025416Y002734D01*
X025335Y002653D01*
X025291Y002546D01*
X025291Y001889D01*
X023021Y001889D01*
X023021Y002506D01*
X022931Y002723D01*
X022765Y002889D01*
X022548Y002978D01*
X022313Y002978D01*
X022096Y002889D01*
X021931Y002723D01*
X021765Y002889D01*
X021548Y002978D01*
X021313Y002978D01*
X021096Y002889D01*
X020931Y002723D01*
X020765Y002889D01*
X020548Y002978D01*
X020313Y002978D01*
X020096Y002889D01*
X019931Y002723D01*
X019765Y002889D01*
X019548Y002978D01*
X019313Y002978D01*
X019096Y002889D01*
X018931Y002723D01*
X018765Y002889D01*
X018548Y002978D01*
X018313Y002978D01*
X018096Y002889D01*
X017931Y002723D01*
X017765Y002889D01*
X017548Y002978D01*
X017313Y002978D01*
X017096Y002889D01*
X016930Y002723D01*
X016841Y002506D01*
X016841Y001889D01*
X016021Y001889D01*
X016021Y002506D01*
X015931Y002723D01*
X015765Y002889D01*
X015548Y002978D01*
X015313Y002978D01*
X015096Y002889D01*
X014931Y002723D01*
X014765Y002889D01*
X014548Y002978D01*
X014313Y002978D01*
X014096Y002889D01*
X013931Y002723D01*
X013765Y002889D01*
X013548Y002978D01*
X013313Y002978D01*
X013096Y002889D01*
X012931Y002723D01*
X012765Y002889D01*
X012548Y002978D01*
X012313Y002978D01*
X012096Y002889D01*
X011931Y002723D01*
X011765Y002889D01*
X011548Y002978D01*
X011313Y002978D01*
X011096Y002889D01*
X010931Y002723D01*
X010765Y002889D01*
X010548Y002978D01*
X010313Y002978D01*
X010096Y002889D01*
X009930Y002723D01*
X009841Y002506D01*
X009841Y001889D01*
X004221Y001889D01*
X004221Y002496D01*
X004176Y002603D01*
X004095Y002684D01*
X003988Y002728D01*
X003431Y002728D01*
X003431Y020299D01*
X003988Y020299D01*
X004095Y020343D01*
X004176Y020424D01*
X004221Y020531D01*
X004221Y021097D01*
X006241Y021119D01*
X006241Y020671D01*
X006330Y020454D01*
X006496Y020288D01*
X006713Y020199D01*
X006821Y020199D01*
X006810Y020194D01*
X006675Y020059D01*
X006602Y019884D01*
X006602Y019693D01*
X006675Y019518D01*
X006711Y019482D01*
X006711Y019278D01*
X006398Y019278D01*
X006331Y019251D01*
X006263Y019278D01*
X005898Y019278D01*
X005791Y019234D01*
X005710Y019153D01*
X005666Y019046D01*
X005666Y018431D01*
X005666Y018430D01*
X005176Y018430D01*
X005069Y018386D01*
X004988Y018304D01*
X004944Y018197D01*
X004944Y017759D01*
X004926Y017767D01*
X004735Y017767D01*
X004560Y017694D01*
X004425Y017559D01*
X004352Y017384D01*
X004352Y017193D01*
X004425Y017018D01*
X004560Y016883D01*
X004735Y016810D01*
X004926Y016810D01*
X005014Y016847D01*
X005069Y016791D01*
X005132Y016766D01*
X005123Y016757D02*
X003431Y016757D01*
X003431Y016855D02*
X004627Y016855D01*
X004489Y016954D02*
X003431Y016954D01*
X003431Y017053D02*
X004411Y017053D01*
X004370Y017151D02*
X003431Y017151D01*
X003431Y017250D02*
X004352Y017250D01*
X004352Y017348D02*
X003431Y017348D01*
X003431Y017447D02*
X004379Y017447D01*
X004419Y017545D02*
X003431Y017545D01*
X003431Y017644D02*
X004510Y017644D01*
X004677Y017742D02*
X003431Y017742D01*
X003431Y017841D02*
X004944Y017841D01*
X004944Y017939D02*
X003431Y017939D01*
X003431Y018038D02*
X004944Y018038D01*
X004944Y018136D02*
X003431Y018136D01*
X003431Y018235D02*
X004959Y018235D01*
X005017Y018334D02*
X003431Y018334D01*
X003431Y018432D02*
X005666Y018432D01*
X005666Y018531D02*
X003431Y018531D01*
X003431Y018629D02*
X005666Y018629D01*
X005666Y018728D02*
X003431Y018728D01*
X003431Y018826D02*
X005666Y018826D01*
X005666Y018925D02*
X003431Y018925D01*
X003431Y019023D02*
X005666Y019023D01*
X005697Y019122D02*
X003431Y019122D01*
X003431Y019220D02*
X005777Y019220D01*
X006635Y019615D02*
X003431Y019615D01*
X003431Y019713D02*
X006602Y019713D01*
X006602Y019812D02*
X003431Y019812D01*
X003431Y019910D02*
X006614Y019910D01*
X006654Y020009D02*
X003431Y020009D01*
X003431Y020107D02*
X006723Y020107D01*
X006695Y020206D02*
X003431Y020206D01*
X004003Y020304D02*
X006480Y020304D01*
X006382Y020403D02*
X004155Y020403D01*
X004208Y020502D02*
X006311Y020502D01*
X006270Y020600D02*
X004221Y020600D01*
X004221Y020699D02*
X006241Y020699D01*
X006241Y020797D02*
X004221Y020797D01*
X004221Y020896D02*
X006241Y020896D01*
X006241Y020994D02*
X004221Y020994D01*
X004221Y021093D02*
X006241Y021093D01*
X007112Y020267D02*
X007165Y020288D01*
X007331Y020454D01*
X007427Y020358D01*
X007289Y020220D01*
X007176Y020267D01*
X007112Y020267D01*
X007181Y020304D02*
X007373Y020304D01*
X007382Y020403D02*
X007279Y020403D01*
X006677Y019516D02*
X003431Y019516D01*
X003431Y019418D02*
X006711Y019418D01*
X006711Y019319D02*
X003431Y019319D01*
X006497Y018199D02*
X006763Y018199D01*
X006831Y018226D01*
X006898Y018199D01*
X007102Y018199D01*
X007102Y018188D01*
X006507Y018188D01*
X006497Y018199D01*
X007031Y017289D02*
X007307Y017289D01*
X007267Y017248D01*
X007211Y017112D01*
X007211Y017078D01*
X006995Y017078D01*
X007031Y017164D01*
X007031Y017289D01*
X007031Y017250D02*
X007268Y017250D01*
X007227Y017151D02*
X007025Y017151D01*
X008059Y018188D02*
X008059Y018199D01*
X008263Y018199D01*
X008331Y018226D01*
X008398Y018199D01*
X008639Y018199D01*
X008635Y018188D01*
X008059Y018188D01*
X009416Y017438D02*
X009462Y017484D01*
X009526Y017639D01*
X010044Y017639D01*
X010044Y017180D01*
X010068Y017121D01*
X010052Y017084D01*
X010052Y016893D01*
X010125Y016718D01*
X010219Y016624D01*
X010149Y016530D01*
X010117Y016498D01*
X010106Y016472D01*
X010089Y016449D01*
X010078Y016404D01*
X010061Y016362D01*
X010061Y016334D01*
X010054Y016306D01*
X010061Y016261D01*
X010061Y016087D01*
X010059Y015865D01*
X010059Y015864D01*
X010059Y015788D01*
X010058Y015719D01*
X010059Y015718D01*
X010059Y015641D01*
X010020Y015549D01*
X010020Y015119D01*
X010054Y015038D01*
X010020Y014958D01*
X010020Y014617D01*
X009935Y014617D01*
X009760Y014544D01*
X009625Y014409D01*
X009601Y014350D01*
X009601Y014935D01*
X009690Y015025D01*
X009794Y015129D01*
X009851Y015265D01*
X009851Y016765D01*
X009851Y016912D01*
X009794Y017048D01*
X009711Y017131D01*
X009604Y017273D01*
X009594Y017298D01*
X009561Y017331D01*
X009532Y017369D01*
X009509Y017383D01*
X009490Y017402D01*
X009446Y017420D01*
X009416Y017438D01*
X009425Y017447D02*
X010044Y017447D01*
X010044Y017545D02*
X009488Y017545D01*
X009548Y017348D02*
X010044Y017348D01*
X010044Y017250D02*
X009622Y017250D01*
X009696Y017151D02*
X010056Y017151D01*
X010052Y017053D02*
X009790Y017053D01*
X009833Y016954D02*
X010052Y016954D01*
X010068Y016855D02*
X009851Y016855D01*
X009851Y016757D02*
X010109Y016757D01*
X010185Y016658D02*
X009851Y016658D01*
X009851Y016560D02*
X010171Y016560D01*
X010098Y016461D02*
X009851Y016461D01*
X009851Y016363D02*
X010061Y016363D01*
X010060Y016264D02*
X009851Y016264D01*
X009851Y016166D02*
X010061Y016166D01*
X010060Y016067D02*
X009851Y016067D01*
X009851Y015969D02*
X010060Y015969D01*
X010059Y015870D02*
X009851Y015870D01*
X009851Y015771D02*
X010059Y015771D01*
X010059Y015673D02*
X009851Y015673D01*
X009851Y015574D02*
X010031Y015574D01*
X010020Y015476D02*
X009851Y015476D01*
X009851Y015377D02*
X010020Y015377D01*
X010020Y015279D02*
X009851Y015279D01*
X009815Y015180D02*
X010020Y015180D01*
X010036Y015082D02*
X009747Y015082D01*
X009648Y014983D02*
X010031Y014983D01*
X010020Y014885D02*
X009601Y014885D01*
X009601Y014786D02*
X010020Y014786D01*
X010020Y014687D02*
X009601Y014687D01*
X009601Y014589D02*
X009869Y014589D01*
X009706Y014490D02*
X009601Y014490D01*
X009601Y014392D02*
X009618Y014392D01*
X009601Y013927D02*
X009625Y013868D01*
X009661Y013832D01*
X009661Y013165D01*
X009717Y013029D01*
X009821Y012925D01*
X009966Y012780D01*
X010102Y012723D01*
X010113Y012723D01*
X010146Y012690D01*
X010253Y012646D01*
X010604Y012646D01*
X010611Y012648D01*
X010617Y012646D01*
X010929Y012646D01*
X010931Y012646D01*
X010932Y012646D01*
X010978Y012646D01*
X010952Y012584D01*
X010952Y012393D01*
X011025Y012218D01*
X011160Y012083D01*
X011335Y012010D01*
X011526Y012010D01*
X011701Y012083D01*
X011836Y012218D01*
X011909Y012393D01*
X011909Y012584D01*
X011836Y012759D01*
X011804Y012791D01*
X011833Y012861D01*
X011873Y012901D01*
X012069Y013096D01*
X012121Y013221D01*
X012121Y013356D01*
X012121Y013929D01*
X012125Y013918D01*
X012161Y013882D01*
X012161Y013215D01*
X012217Y013079D01*
X012321Y012975D01*
X012508Y012788D01*
X012515Y012771D01*
X012596Y012690D01*
X012703Y012646D01*
X013054Y012646D01*
X013061Y012648D01*
X013067Y012646D01*
X013379Y012646D01*
X013381Y012646D01*
X013382Y012646D01*
X013402Y012646D01*
X013402Y012543D01*
X013475Y012368D01*
X013610Y012233D01*
X013785Y012160D01*
X013976Y012160D01*
X014151Y012233D01*
X014286Y012368D01*
X014359Y012543D01*
X014359Y012734D01*
X014344Y012768D01*
X014423Y012800D01*
X014519Y012896D01*
X014569Y012946D01*
X014621Y013071D01*
X014621Y013206D01*
X014621Y014156D01*
X014569Y014281D01*
X014473Y014377D01*
X014270Y014579D01*
X014291Y014628D01*
X014291Y014757D01*
X014296Y014770D01*
X014296Y014917D01*
X014291Y014929D01*
X014291Y015058D01*
X014257Y015138D01*
X014291Y015219D01*
X014291Y015625D01*
X014504Y015839D01*
X014518Y015839D01*
X014581Y015864D01*
X014643Y015839D01*
X015018Y015839D01*
X015125Y015883D01*
X015206Y015964D01*
X015251Y016071D01*
X015251Y016642D01*
X015260Y016633D01*
X015435Y016560D01*
X015611Y016560D01*
X015251Y016560D01*
X015251Y016461D02*
X015611Y016461D01*
X015611Y016363D02*
X015251Y016363D01*
X015251Y016264D02*
X015611Y016264D01*
X015611Y016166D02*
X015251Y016166D01*
X015249Y016067D02*
X015611Y016067D01*
X015611Y016062D02*
X015611Y015915D01*
X015667Y015779D01*
X015670Y015775D01*
X015670Y015419D01*
X015704Y015339D01*
X015670Y015258D01*
X015670Y014828D01*
X015715Y014721D01*
X015720Y014717D01*
X015585Y014717D01*
X015410Y014644D01*
X015275Y014509D01*
X015202Y014334D01*
X015202Y014143D01*
X015275Y013968D01*
X015311Y013932D01*
X015311Y013265D01*
X015367Y013129D01*
X015471Y013025D01*
X015616Y012880D01*
X015752Y012823D01*
X015763Y012823D01*
X015796Y012790D01*
X015903Y012746D01*
X016254Y012746D01*
X016261Y012748D01*
X016267Y012746D01*
X016579Y012746D01*
X016581Y012746D01*
X016582Y012746D01*
X016892Y012746D01*
X016670Y012508D01*
X015004Y012508D01*
X014857Y012508D01*
X014721Y012452D01*
X014462Y012193D01*
X014406Y012057D01*
X014406Y011910D01*
X014406Y011007D01*
X014406Y010860D01*
X014406Y010646D01*
X014400Y010649D01*
X014117Y010649D01*
X014136Y010668D01*
X014209Y010843D01*
X014209Y011034D01*
X014136Y011209D01*
X014001Y011344D01*
X013826Y011417D01*
X013635Y011417D01*
X013460Y011344D01*
X013424Y011308D01*
X009601Y011308D01*
X009601Y013927D01*
X009601Y013899D02*
X009612Y013899D01*
X009601Y013801D02*
X009661Y013801D01*
X009661Y013702D02*
X009601Y013702D01*
X009601Y013604D02*
X009661Y013604D01*
X009661Y013505D02*
X009601Y013505D01*
X009601Y013406D02*
X009661Y013406D01*
X009661Y013308D02*
X009601Y013308D01*
X009601Y013209D02*
X009661Y013209D01*
X009683Y013111D02*
X009601Y013111D01*
X009601Y013012D02*
X009734Y013012D01*
X009832Y012914D02*
X009601Y012914D01*
X009601Y012815D02*
X009931Y012815D01*
X010119Y012717D02*
X009601Y012717D01*
X009601Y012618D02*
X010967Y012618D01*
X010952Y012520D02*
X009601Y012520D01*
X009601Y012421D02*
X010952Y012421D01*
X010982Y012322D02*
X009601Y012322D01*
X009601Y012224D02*
X011023Y012224D01*
X011118Y012125D02*
X009601Y012125D01*
X009601Y012027D02*
X011296Y012027D01*
X011565Y012027D02*
X014406Y012027D01*
X014406Y011928D02*
X009601Y011928D01*
X009601Y011830D02*
X014406Y011830D01*
X014406Y011731D02*
X009601Y011731D01*
X009601Y011633D02*
X014406Y011633D01*
X014406Y011534D02*
X009601Y011534D01*
X009601Y011436D02*
X014406Y011436D01*
X014406Y011337D02*
X014008Y011337D01*
X014107Y011238D02*
X014406Y011238D01*
X014406Y011140D02*
X014165Y011140D01*
X014205Y011041D02*
X014406Y011041D01*
X014406Y010943D02*
X014209Y010943D01*
X014209Y010844D02*
X014406Y010844D01*
X014406Y010746D02*
X014168Y010746D01*
X014404Y010647D02*
X014406Y010647D01*
X013756Y010460D02*
X013738Y010416D01*
X013738Y010266D01*
X012834Y010266D01*
X012886Y010318D01*
X012959Y010493D01*
X012959Y010569D01*
X013424Y010569D01*
X013460Y010533D01*
X013635Y010460D01*
X013756Y010460D01*
X013752Y010450D02*
X012941Y010450D01*
X012959Y010549D02*
X013444Y010549D01*
X013738Y010352D02*
X012900Y010352D01*
X012691Y009526D02*
X012651Y009485D01*
X012651Y009117D01*
X012826Y009117D01*
X013001Y009044D01*
X013136Y008909D01*
X013145Y008887D01*
X013175Y008959D01*
X013310Y009094D01*
X013485Y009167D01*
X013676Y009167D01*
X013738Y009141D01*
X013738Y009412D01*
X013740Y009419D01*
X013738Y009425D01*
X013738Y009526D01*
X012691Y009526D01*
X012651Y009465D02*
X013738Y009465D01*
X013738Y009366D02*
X012651Y009366D01*
X012651Y009268D02*
X013738Y009268D01*
X013738Y009169D02*
X012651Y009169D01*
X012937Y009071D02*
X013286Y009071D01*
X013188Y008972D02*
X013073Y008972D01*
X011411Y008972D02*
X011351Y008972D01*
X011351Y009071D02*
X011411Y009071D01*
X011411Y009169D02*
X011351Y009169D01*
X011351Y009268D02*
X011411Y009268D01*
X011386Y009318D02*
X011411Y009377D01*
X011411Y008404D01*
X011410Y008403D01*
X011409Y008402D01*
X011386Y008459D01*
X011351Y008495D01*
X011351Y009282D01*
X011386Y009318D01*
X011406Y009366D02*
X011411Y009366D01*
X011411Y008873D02*
X011351Y008873D01*
X011351Y008775D02*
X011411Y008775D01*
X011411Y008676D02*
X011351Y008676D01*
X011351Y008578D02*
X011411Y008578D01*
X011411Y008479D02*
X011366Y008479D01*
X011366Y007897D02*
X011366Y007812D01*
X011346Y007831D01*
X011335Y007836D01*
X011335Y007867D01*
X011366Y007897D01*
X011366Y007888D02*
X011356Y007888D01*
X010595Y007888D02*
X007120Y007888D01*
X007201Y008083D01*
X007201Y008294D01*
X007120Y008489D01*
X006971Y008638D01*
X006776Y008718D01*
X006085Y008718D01*
X005890Y008638D01*
X005741Y008489D01*
X005661Y008294D01*
X005661Y008083D01*
X005741Y007888D01*
X005890Y007739D01*
X006013Y007688D01*
X005890Y007638D01*
X005741Y007489D01*
X005661Y007294D01*
X005661Y007083D01*
X005741Y006888D01*
X005890Y006739D01*
X006013Y006688D01*
X005890Y006638D01*
X005741Y006489D01*
X005661Y006294D01*
X005661Y006083D01*
X005741Y005888D01*
X005890Y005739D01*
X006085Y005659D01*
X006776Y005659D01*
X006971Y005739D01*
X007120Y005888D01*
X007201Y006083D01*
X007201Y006294D01*
X007120Y006489D01*
X006971Y006638D01*
X006848Y006688D01*
X006971Y006739D01*
X007120Y006888D01*
X007201Y007083D01*
X007201Y007294D01*
X007120Y007489D01*
X006971Y007638D01*
X006848Y007688D01*
X006971Y007739D01*
X007120Y007888D01*
X007161Y007987D02*
X010547Y007987D01*
X010506Y008085D02*
X007201Y008085D01*
X007201Y008184D02*
X010502Y008184D01*
X010502Y008282D02*
X007201Y008282D01*
X007165Y008381D02*
X010543Y008381D01*
X010595Y008479D02*
X007124Y008479D01*
X007031Y008578D02*
X010611Y008578D01*
X010611Y008676D02*
X006878Y008676D01*
X005983Y008676D02*
X005212Y008676D01*
X005134Y008708D02*
X004927Y008708D01*
X004736Y008629D01*
X004681Y008574D01*
X004546Y008708D01*
X004115Y008708D01*
X003811Y008404D01*
X003811Y007973D01*
X004115Y007669D01*
X004546Y007669D01*
X004681Y007803D01*
X004736Y007748D01*
X004927Y007669D01*
X005134Y007669D01*
X005325Y007748D01*
X005471Y007894D01*
X005551Y008085D01*
X005661Y008085D01*
X005661Y008184D02*
X005551Y008184D01*
X005551Y008282D02*
X005661Y008282D01*
X005696Y008381D02*
X005514Y008381D01*
X005551Y008292D02*
X005471Y008483D01*
X005325Y008629D01*
X005134Y008708D01*
X005377Y008578D02*
X005830Y008578D01*
X005737Y008479D02*
X005473Y008479D01*
X005551Y008292D02*
X005551Y008085D01*
X005510Y007987D02*
X005701Y007987D01*
X005741Y007888D02*
X005465Y007888D01*
X005367Y007789D02*
X005840Y007789D01*
X006007Y007691D02*
X005188Y007691D01*
X004873Y007691D02*
X004568Y007691D01*
X004667Y007789D02*
X004694Y007789D01*
X004093Y007691D02*
X003431Y007691D01*
X003431Y007789D02*
X003994Y007789D01*
X003896Y007888D02*
X003431Y007888D01*
X003431Y007987D02*
X003811Y007987D01*
X003811Y008085D02*
X003431Y008085D01*
X003431Y008184D02*
X003811Y008184D01*
X003811Y008282D02*
X003431Y008282D01*
X003431Y008381D02*
X003811Y008381D01*
X003886Y008479D02*
X003431Y008479D01*
X003431Y008578D02*
X003984Y008578D01*
X004083Y008676D02*
X003431Y008676D01*
X003431Y008775D02*
X010611Y008775D01*
X010611Y008873D02*
X003431Y008873D01*
X003431Y008972D02*
X010611Y008972D01*
X010611Y009071D02*
X003431Y009071D01*
X003431Y009169D02*
X010611Y009169D01*
X010611Y009268D02*
X003431Y009268D01*
X003431Y009366D02*
X010555Y009366D01*
X010514Y009465D02*
X003431Y009465D01*
X003431Y009563D02*
X010502Y009563D01*
X010502Y009662D02*
X003431Y009662D01*
X003431Y009760D02*
X010534Y009760D01*
X009601Y011337D02*
X013453Y011337D01*
X014434Y012125D02*
X011744Y012125D01*
X011838Y012224D02*
X013632Y012224D01*
X013520Y012322D02*
X011879Y012322D01*
X011909Y012421D02*
X013453Y012421D01*
X013412Y012520D02*
X011909Y012520D01*
X011894Y012618D02*
X013402Y012618D01*
X013538Y013093D02*
X013883Y013684D01*
X013881Y013686D01*
X013881Y014089D01*
X013538Y014431D01*
X013538Y014843D01*
X013223Y014843D02*
X013223Y013684D01*
X013538Y013684D01*
X012879Y013684D02*
X013223Y013093D01*
X013883Y013093D02*
X013887Y013089D01*
X014231Y013089D01*
X014281Y013139D01*
X014281Y014089D01*
X013883Y014487D01*
X013883Y014843D01*
X014296Y014885D02*
X015670Y014885D01*
X015670Y014983D02*
X014291Y014983D01*
X014281Y015082D02*
X015670Y015082D01*
X015670Y015180D02*
X014275Y015180D01*
X014291Y015279D02*
X015679Y015279D01*
X015688Y015377D02*
X014291Y015377D01*
X014291Y015476D02*
X015670Y015476D01*
X015670Y015574D02*
X014291Y015574D01*
X014338Y015673D02*
X015670Y015673D01*
X015670Y015771D02*
X014437Y015771D01*
X015094Y015870D02*
X015629Y015870D01*
X015611Y015969D02*
X015208Y015969D01*
X015611Y016062D02*
X015611Y016560D01*
X016678Y017318D02*
X016709Y017393D01*
X016709Y017569D01*
X019107Y017569D01*
X019254Y017569D01*
X019390Y017625D01*
X019644Y017879D01*
X019701Y018015D01*
X019701Y018162D01*
X019701Y018359D01*
X020018Y018359D01*
X020125Y018403D01*
X020206Y018484D01*
X020251Y018591D01*
X020251Y019069D01*
X020304Y019069D01*
X022927Y019069D01*
X022961Y019035D01*
X022961Y018015D01*
X023017Y017879D01*
X023121Y017775D01*
X023226Y017669D01*
X023233Y017657D01*
X023241Y017650D01*
X023275Y017568D01*
X023384Y017458D01*
X021554Y017458D01*
X021407Y017458D01*
X021271Y017402D01*
X020916Y017048D01*
X020911Y017045D01*
X020865Y016996D01*
X020817Y016948D01*
X020814Y016942D01*
X020251Y016339D01*
X020251Y017086D01*
X020247Y017095D01*
X020309Y017243D01*
X020309Y017434D01*
X020236Y017609D01*
X020101Y017744D01*
X019926Y017817D01*
X019735Y017817D01*
X019560Y017744D01*
X019425Y017609D01*
X019352Y017434D01*
X019352Y017318D01*
X019143Y017318D01*
X019081Y017293D01*
X019018Y017318D01*
X018643Y017318D01*
X018581Y017293D01*
X018518Y017318D01*
X018143Y017318D01*
X018081Y017293D01*
X018018Y017318D01*
X017643Y017318D01*
X017581Y017293D01*
X017518Y017318D01*
X017143Y017318D01*
X017081Y017293D01*
X017018Y017318D01*
X016678Y017318D01*
X016690Y017348D02*
X019352Y017348D01*
X019358Y017447D02*
X016709Y017447D01*
X016709Y017545D02*
X019399Y017545D01*
X019409Y017644D02*
X019460Y017644D01*
X019508Y017742D02*
X019558Y017742D01*
X019606Y017841D02*
X023055Y017841D01*
X022992Y017939D02*
X019669Y017939D01*
X019701Y018038D02*
X022961Y018038D01*
X022961Y018136D02*
X019701Y018136D01*
X019701Y018235D02*
X022961Y018235D01*
X022961Y018334D02*
X019701Y018334D01*
X020154Y018432D02*
X022961Y018432D01*
X022961Y018531D02*
X020226Y018531D01*
X020251Y018629D02*
X022961Y018629D01*
X022961Y018728D02*
X020251Y018728D01*
X020251Y018826D02*
X022961Y018826D01*
X022961Y018925D02*
X020251Y018925D01*
X020251Y019023D02*
X022961Y019023D01*
X023924Y019719D02*
X025057Y019719D01*
X025204Y019719D01*
X025340Y019775D01*
X025984Y020419D01*
X026078Y020419D01*
X026074Y020408D01*
X026074Y019899D01*
X026118Y019793D01*
X026133Y019778D01*
X026133Y019663D01*
X026126Y019667D01*
X025935Y019667D01*
X025760Y019594D01*
X025674Y019508D01*
X025557Y019508D01*
X025421Y019452D01*
X025317Y019348D01*
X025303Y019334D01*
X025246Y019198D01*
X025246Y019095D01*
X025196Y019074D01*
X025115Y018993D01*
X025070Y018886D01*
X025070Y018161D01*
X025115Y018054D01*
X025196Y017973D01*
X025303Y017928D01*
X025930Y017928D01*
X026037Y017973D01*
X026118Y018054D01*
X026162Y018161D01*
X026162Y018673D01*
X026225Y018673D01*
X026231Y018668D01*
X026231Y017693D01*
X025454Y017693D01*
X025347Y017649D01*
X025266Y017567D01*
X025222Y017461D01*
X025222Y017439D01*
X025221Y017439D01*
X025208Y017469D01*
X025126Y017551D01*
X025020Y017595D01*
X024511Y017595D01*
X024431Y017562D01*
X024350Y017595D01*
X024097Y017595D01*
X024159Y017743D01*
X024159Y017929D01*
X024265Y017973D01*
X024346Y018054D01*
X024391Y018161D01*
X024391Y018886D01*
X024346Y018993D01*
X024265Y019074D01*
X024201Y019101D01*
X024201Y019362D01*
X024144Y019498D01*
X024040Y019602D01*
X023924Y019719D01*
X023929Y019713D02*
X026133Y019713D01*
X026110Y019812D02*
X025377Y019812D01*
X025476Y019910D02*
X026074Y019910D01*
X026074Y020009D02*
X025574Y020009D01*
X025673Y020107D02*
X026074Y020107D01*
X026074Y020206D02*
X025771Y020206D01*
X025870Y020304D02*
X026074Y020304D01*
X026074Y020403D02*
X025968Y020403D01*
X025415Y020896D02*
X023021Y020896D01*
X023021Y020994D02*
X025513Y020994D01*
X025517Y020998D02*
X024977Y020458D01*
X022932Y020458D01*
X023021Y020671D01*
X023021Y021303D01*
X023299Y021306D01*
X023299Y021291D01*
X023343Y021184D01*
X023425Y021102D01*
X023531Y021058D01*
X024158Y021058D01*
X024265Y021102D01*
X024346Y021184D01*
X024391Y021291D01*
X024391Y021318D01*
X025070Y021326D01*
X025070Y021291D01*
X025115Y021184D01*
X025196Y021102D01*
X025303Y021058D01*
X025577Y021058D01*
X025517Y020998D01*
X025316Y020797D02*
X023021Y020797D01*
X023021Y020699D02*
X025217Y020699D01*
X025119Y020600D02*
X022991Y020600D01*
X022950Y020502D02*
X025020Y020502D01*
X025220Y021093D02*
X024241Y021093D01*
X024349Y021191D02*
X025112Y021191D01*
X025071Y021290D02*
X024390Y021290D01*
X023448Y021093D02*
X023021Y021093D01*
X023021Y021191D02*
X023340Y021191D01*
X023299Y021290D02*
X023021Y021290D01*
X024028Y019615D02*
X025810Y019615D01*
X025682Y019516D02*
X024126Y019516D01*
X024178Y019418D02*
X025386Y019418D01*
X025297Y019319D02*
X024201Y019319D01*
X024201Y019220D02*
X025256Y019220D01*
X025246Y019122D02*
X024201Y019122D01*
X024316Y019023D02*
X025145Y019023D01*
X025086Y018925D02*
X024375Y018925D01*
X024391Y018826D02*
X025070Y018826D01*
X025070Y018728D02*
X024391Y018728D01*
X024391Y018629D02*
X025070Y018629D01*
X025070Y018531D02*
X024391Y018531D01*
X024391Y018432D02*
X025070Y018432D01*
X025070Y018334D02*
X024391Y018334D01*
X024391Y018235D02*
X025070Y018235D01*
X025080Y018136D02*
X024381Y018136D01*
X024330Y018038D02*
X025131Y018038D01*
X025276Y017939D02*
X024185Y017939D01*
X024159Y017841D02*
X026231Y017841D01*
X026231Y017939D02*
X025956Y017939D01*
X026102Y018038D02*
X026231Y018038D01*
X026231Y018136D02*
X026152Y018136D01*
X026162Y018235D02*
X026231Y018235D01*
X026231Y018334D02*
X026162Y018334D01*
X026162Y018432D02*
X026231Y018432D01*
X026231Y018531D02*
X026162Y018531D01*
X026162Y018629D02*
X026231Y018629D01*
X026231Y017742D02*
X024158Y017742D01*
X024117Y017644D02*
X025342Y017644D01*
X025257Y017545D02*
X025132Y017545D01*
X025217Y017447D02*
X025222Y017447D01*
X023298Y017545D02*
X020262Y017545D01*
X020303Y017447D02*
X021379Y017447D01*
X021217Y017348D02*
X020309Y017348D01*
X020309Y017250D02*
X021118Y017250D01*
X021020Y017151D02*
X020270Y017151D01*
X020251Y017053D02*
X020921Y017053D01*
X020823Y016954D02*
X020251Y016954D01*
X020251Y016855D02*
X020733Y016855D01*
X020641Y016757D02*
X020251Y016757D01*
X020251Y016658D02*
X020549Y016658D01*
X020457Y016560D02*
X020251Y016560D01*
X020251Y016461D02*
X020365Y016461D01*
X020273Y016363D02*
X020251Y016363D01*
X019876Y015939D02*
X019291Y015312D01*
X019291Y015358D01*
X019257Y015439D01*
X019291Y015519D01*
X019291Y015939D01*
X019518Y015939D01*
X019581Y015964D01*
X019643Y015939D01*
X019876Y015939D01*
X019812Y015870D02*
X019291Y015870D01*
X019291Y015771D02*
X019720Y015771D01*
X019628Y015673D02*
X019291Y015673D01*
X019291Y015574D02*
X019536Y015574D01*
X019444Y015476D02*
X019273Y015476D01*
X019283Y015377D02*
X019352Y015377D01*
X020620Y014120D02*
X020620Y014019D01*
X020654Y013939D01*
X020620Y013858D01*
X020620Y013652D01*
X020604Y013658D01*
X020457Y013658D01*
X020387Y013658D01*
X020351Y013694D01*
X020252Y013735D01*
X020295Y013780D01*
X020344Y013829D01*
X020346Y013833D01*
X020620Y014120D01*
X020620Y014096D02*
X020598Y014096D01*
X020629Y013998D02*
X020503Y013998D01*
X020409Y013899D02*
X020637Y013899D01*
X020620Y013801D02*
X020316Y013801D01*
X020331Y013702D02*
X020620Y013702D01*
X022438Y014013D02*
X022802Y014013D01*
X022949Y014013D01*
X023085Y013957D01*
X023226Y013817D01*
X023276Y013817D01*
X023451Y013744D01*
X023561Y013635D01*
X023561Y014385D01*
X023527Y014419D01*
X022857Y014419D01*
X022721Y014475D01*
X022642Y014554D01*
X022586Y014418D01*
X022451Y014283D01*
X022441Y014279D01*
X022441Y014019D01*
X022438Y014013D01*
X022441Y014096D02*
X023561Y014096D01*
X023561Y013998D02*
X022987Y013998D01*
X023143Y013899D02*
X023561Y013899D01*
X023561Y013801D02*
X023314Y013801D01*
X023493Y013702D02*
X023561Y013702D01*
X024301Y013702D02*
X024520Y013702D01*
X024502Y013743D02*
X024575Y013568D01*
X024710Y013433D01*
X024885Y013360D01*
X025076Y013360D01*
X025227Y013423D01*
X025266Y013330D01*
X025307Y013288D01*
X025266Y013247D01*
X025222Y013141D01*
X025222Y013118D01*
X025079Y013118D01*
X025058Y013169D01*
X024976Y013251D01*
X024870Y013295D01*
X024361Y013295D01*
X024301Y013270D01*
X024301Y014612D01*
X024244Y014748D01*
X024140Y014852D01*
X023996Y014996D01*
X024058Y015058D01*
X024062Y015069D01*
X024624Y015069D01*
X024660Y015033D01*
X024835Y014960D01*
X025026Y014960D01*
X025201Y015033D01*
X025222Y015054D01*
X025222Y014516D01*
X025266Y014409D01*
X025307Y014369D01*
X025266Y014327D01*
X025234Y014251D01*
X025076Y014317D01*
X024885Y014317D01*
X024710Y014244D01*
X024575Y014109D01*
X024502Y013934D01*
X024502Y013743D01*
X024502Y013801D02*
X024301Y013801D01*
X024301Y013899D02*
X024502Y013899D01*
X024529Y013998D02*
X024301Y013998D01*
X024301Y014096D02*
X024570Y014096D01*
X024661Y014195D02*
X024301Y014195D01*
X024301Y014293D02*
X024829Y014293D01*
X025132Y014293D02*
X025252Y014293D01*
X025284Y014392D02*
X024301Y014392D01*
X024301Y014490D02*
X025232Y014490D01*
X025222Y014589D02*
X024301Y014589D01*
X024269Y014687D02*
X025222Y014687D01*
X025222Y014786D02*
X024206Y014786D01*
X024108Y014885D02*
X025222Y014885D01*
X025222Y014983D02*
X025080Y014983D01*
X024781Y014983D02*
X024009Y014983D01*
X023554Y014392D02*
X022560Y014392D01*
X022616Y014490D02*
X022705Y014490D01*
X022461Y014293D02*
X023561Y014293D01*
X023561Y014195D02*
X022441Y014195D01*
X024301Y013604D02*
X024560Y013604D01*
X024638Y013505D02*
X024301Y013505D01*
X024301Y013406D02*
X024774Y013406D01*
X025018Y013209D02*
X025250Y013209D01*
X025288Y013308D02*
X024301Y013308D01*
X025187Y013406D02*
X025234Y013406D01*
X025222Y012378D02*
X025222Y012356D01*
X025266Y012249D01*
X025307Y012209D01*
X025266Y012167D01*
X025222Y012061D01*
X025222Y012058D01*
X025012Y012058D01*
X025008Y012069D01*
X024926Y012151D01*
X024820Y012195D01*
X024311Y012195D01*
X024231Y012162D01*
X024150Y012195D01*
X023701Y012195D01*
X023701Y012282D01*
X024200Y012282D01*
X024281Y012315D01*
X024361Y012282D01*
X024870Y012282D01*
X024976Y012326D01*
X025029Y012378D01*
X025222Y012378D01*
X025236Y012322D02*
X024967Y012322D01*
X024952Y012125D02*
X025248Y012125D01*
X025292Y012224D02*
X023701Y012224D01*
X022961Y012224D02*
X022929Y012224D01*
X022929Y012203D02*
X022929Y012405D01*
X022920Y012419D01*
X022961Y012419D01*
X022961Y012185D01*
X022951Y012194D01*
X022929Y012203D01*
X022929Y012322D02*
X022961Y012322D01*
X022252Y012003D02*
X022202Y011884D01*
X022202Y011693D01*
X022223Y011643D01*
X022049Y011643D01*
X021905Y011787D01*
X021936Y011818D01*
X022009Y011993D01*
X022009Y012184D01*
X021982Y012249D01*
X022127Y012249D01*
X022181Y012064D01*
X022252Y012003D01*
X022224Y012027D02*
X022009Y012027D01*
X022009Y012125D02*
X022163Y012125D01*
X022134Y012224D02*
X021992Y012224D01*
X021982Y011928D02*
X022221Y011928D01*
X022202Y011830D02*
X021941Y011830D01*
X021961Y011731D02*
X022202Y011731D01*
X021517Y011128D02*
X021401Y011128D01*
X021401Y011212D01*
X021398Y011219D01*
X021427Y011219D01*
X021517Y011128D01*
X021506Y011140D02*
X021401Y011140D01*
X021156Y010049D02*
X020982Y010049D01*
X021009Y009984D01*
X021009Y009808D01*
X021236Y009808D01*
X021234Y009812D01*
X021217Y009829D01*
X021198Y009875D01*
X021173Y009919D01*
X021170Y009943D01*
X021161Y009965D01*
X021161Y010015D01*
X021156Y010049D01*
X021164Y009957D02*
X021009Y009957D01*
X021009Y009859D02*
X021204Y009859D01*
X021909Y009069D02*
X023382Y009069D01*
X023405Y009062D01*
X023455Y009069D01*
X023504Y009069D01*
X023527Y009078D01*
X023551Y009081D01*
X023594Y009106D01*
X023640Y009125D01*
X023657Y009142D01*
X023679Y009155D01*
X023709Y009194D01*
X023726Y009211D01*
X023726Y008117D01*
X023585Y008117D01*
X023410Y008044D01*
X023374Y008008D01*
X022226Y008008D01*
X022153Y008081D01*
X022101Y008103D01*
X022101Y008212D01*
X022044Y008348D01*
X022018Y008374D01*
X022022Y008384D01*
X022022Y008893D01*
X021978Y009000D01*
X021909Y009069D01*
X021989Y008972D02*
X023726Y008972D01*
X023726Y009071D02*
X023509Y009071D01*
X023690Y009169D02*
X023726Y009169D01*
X023726Y008873D02*
X022022Y008873D01*
X022022Y008775D02*
X023726Y008775D01*
X023726Y008676D02*
X022022Y008676D01*
X022022Y008578D02*
X023726Y008578D01*
X023726Y008479D02*
X022022Y008479D01*
X022020Y008381D02*
X023726Y008381D01*
X023726Y008282D02*
X022071Y008282D01*
X022101Y008184D02*
X023726Y008184D01*
X023509Y008085D02*
X022144Y008085D01*
X022156Y007198D02*
X023494Y007198D01*
X023726Y007100D02*
X022064Y007100D01*
X022016Y007001D02*
X023726Y007001D01*
X023726Y006903D02*
X021975Y006903D01*
X022017Y006804D02*
X023726Y006804D01*
X023726Y006705D02*
X022022Y006705D01*
X022022Y006607D02*
X023726Y006607D01*
X023726Y006508D02*
X022022Y006508D01*
X022022Y006410D02*
X023726Y006410D01*
X023726Y006311D02*
X022022Y006311D01*
X021992Y006213D02*
X023726Y006213D01*
X023726Y006114D02*
X021914Y006114D01*
X021309Y006016D02*
X023726Y006016D01*
X023726Y005917D02*
X021298Y005917D01*
X021257Y005819D02*
X023726Y005819D01*
X023726Y005720D02*
X021188Y005720D01*
X021073Y005621D02*
X023726Y005621D01*
X023726Y005523D02*
X017601Y005523D01*
X017601Y005621D02*
X020588Y005621D01*
X020473Y005720D02*
X017601Y005720D01*
X017601Y005819D02*
X020404Y005819D01*
X020363Y005917D02*
X017601Y005917D01*
X017601Y006016D02*
X020352Y006016D01*
X020352Y006114D02*
X017601Y006114D01*
X017601Y006213D02*
X020369Y006213D01*
X020339Y006311D02*
X017601Y006311D01*
X017601Y006410D02*
X020339Y006410D01*
X020339Y006508D02*
X017601Y006508D01*
X017601Y006607D02*
X020339Y006607D01*
X020339Y006705D02*
X017601Y006705D01*
X017601Y006804D02*
X020344Y006804D01*
X020327Y006903D02*
X017601Y006903D01*
X017601Y007001D02*
X020286Y007001D01*
X020282Y007100D02*
X017601Y007100D01*
X017601Y007198D02*
X020282Y007198D01*
X020282Y007297D02*
X017601Y007297D01*
X017601Y007395D02*
X020282Y007395D01*
X020282Y007494D02*
X017601Y007494D01*
X017601Y007592D02*
X020312Y007592D01*
X020310Y007691D02*
X017601Y007691D01*
X017601Y007789D02*
X020282Y007789D01*
X020282Y007888D02*
X017601Y007888D01*
X017601Y007987D02*
X020282Y007987D01*
X020282Y008085D02*
X017601Y008085D01*
X017601Y008184D02*
X020282Y008184D01*
X020014Y008282D02*
X017601Y008282D01*
X017601Y008381D02*
X019915Y008381D01*
X019846Y008479D02*
X017601Y008479D01*
X017601Y008578D02*
X019811Y008578D01*
X019811Y008676D02*
X017601Y008676D01*
X017601Y008775D02*
X019811Y008775D01*
X019752Y008873D02*
X017601Y008873D01*
X017601Y008972D02*
X019711Y008972D01*
X019702Y009071D02*
X017601Y009071D01*
X017601Y009169D02*
X019702Y009169D01*
X019701Y009268D02*
X017601Y009268D01*
X017601Y009366D02*
X019661Y009366D01*
X019661Y009465D02*
X017601Y009465D01*
X017601Y009563D02*
X019661Y009563D01*
X019661Y009662D02*
X017601Y009662D01*
X017601Y009760D02*
X019661Y009760D01*
X019661Y009859D02*
X017601Y009859D01*
X017601Y009957D02*
X019661Y009957D01*
X019330Y010056D02*
X017601Y010056D01*
X017601Y010154D02*
X018288Y010154D01*
X018190Y010253D02*
X017601Y010253D01*
X017601Y010352D02*
X018140Y010352D01*
X018102Y010450D02*
X017601Y010450D01*
X017601Y010549D02*
X018102Y010549D01*
X018108Y010647D02*
X017601Y010647D01*
X017601Y010746D02*
X017650Y010746D01*
X018011Y010746D02*
X018015Y010746D01*
X018873Y010154D02*
X019179Y010154D01*
X019127Y010253D02*
X018971Y010253D01*
X019027Y010352D02*
X019116Y010352D01*
X019116Y010450D02*
X019080Y010450D01*
X016611Y010450D02*
X016101Y010450D01*
X016101Y010352D02*
X016611Y010352D01*
X016611Y010253D02*
X016101Y010253D01*
X016101Y010154D02*
X016611Y010154D01*
X016611Y010056D02*
X016097Y010056D01*
X016101Y010065D02*
X016101Y011419D01*
X016611Y011419D01*
X016611Y008682D01*
X016540Y008752D01*
X015809Y009484D01*
X015747Y009632D01*
X015940Y009825D01*
X016044Y009929D01*
X016101Y010065D01*
X016056Y009957D02*
X016611Y009957D01*
X016611Y009859D02*
X015974Y009859D01*
X015876Y009760D02*
X016611Y009760D01*
X016611Y009662D02*
X015777Y009662D01*
X015776Y009563D02*
X016611Y009563D01*
X016611Y009465D02*
X015828Y009465D01*
X015926Y009366D02*
X016611Y009366D01*
X016611Y009268D02*
X016025Y009268D01*
X016123Y009169D02*
X016611Y009169D01*
X016611Y009071D02*
X016222Y009071D01*
X016320Y008972D02*
X016611Y008972D01*
X016611Y008873D02*
X016419Y008873D01*
X016517Y008775D02*
X016611Y008775D01*
X016540Y008752D02*
X016540Y008752D01*
X015961Y008285D02*
X015961Y007395D01*
X015601Y007395D01*
X015601Y007297D02*
X015899Y007297D01*
X015925Y007359D02*
X015852Y007184D01*
X015852Y006993D01*
X015925Y006818D01*
X016060Y006683D01*
X016235Y006610D01*
X016426Y006610D01*
X016601Y006683D01*
X016611Y006692D01*
X016611Y006533D01*
X016066Y006158D01*
X015170Y006158D01*
X015151Y006203D01*
X015070Y006284D01*
X015006Y006311D01*
X015040Y006325D01*
X015440Y006725D01*
X015544Y006829D01*
X015601Y006965D01*
X015601Y007732D01*
X015636Y007768D01*
X015709Y007943D01*
X015709Y008134D01*
X015636Y008309D01*
X015507Y008439D01*
X015636Y008568D01*
X015648Y008598D01*
X015961Y008285D01*
X015961Y008282D02*
X015647Y008282D01*
X015688Y008184D02*
X015961Y008184D01*
X015961Y008085D02*
X015709Y008085D01*
X015709Y007987D02*
X015961Y007987D01*
X015961Y007888D02*
X015686Y007888D01*
X015645Y007789D02*
X015961Y007789D01*
X015961Y007691D02*
X015601Y007691D01*
X015601Y007592D02*
X015961Y007592D01*
X015961Y007494D02*
X015601Y007494D01*
X015601Y007198D02*
X015859Y007198D01*
X015852Y007100D02*
X015601Y007100D01*
X015601Y007001D02*
X015852Y007001D01*
X015890Y006903D02*
X015575Y006903D01*
X015519Y006804D02*
X015939Y006804D01*
X016037Y006705D02*
X015421Y006705D01*
X015322Y006607D02*
X016611Y006607D01*
X016575Y006508D02*
X015224Y006508D01*
X015125Y006410D02*
X016431Y006410D01*
X016288Y006311D02*
X015007Y006311D01*
X015141Y006213D02*
X016145Y006213D01*
X016551Y005594D02*
X016861Y005807D01*
X016861Y005592D01*
X016585Y005317D01*
X016551Y005317D01*
X016551Y005594D01*
X016591Y005621D02*
X016861Y005621D01*
X016861Y005720D02*
X016734Y005720D01*
X016792Y005523D02*
X016551Y005523D01*
X016551Y005424D02*
X016693Y005424D01*
X016595Y005326D02*
X016551Y005326D01*
X017148Y004833D02*
X023726Y004833D01*
X023726Y004735D02*
X017105Y004735D01*
X017064Y004636D02*
X023726Y004636D01*
X023671Y004538D02*
X017006Y004538D01*
X017001Y004439D02*
X023620Y004439D01*
X023609Y004340D02*
X017001Y004340D01*
X017001Y004242D02*
X023609Y004242D01*
X023609Y004143D02*
X017001Y004143D01*
X017001Y004045D02*
X023609Y004045D01*
X023609Y003946D02*
X017001Y003946D01*
X017001Y003848D02*
X023616Y003848D01*
X023662Y003749D02*
X016973Y003749D01*
X016916Y003651D02*
X023796Y003651D01*
X024395Y003651D02*
X024466Y003651D01*
X025065Y003651D02*
X025249Y003651D01*
X025323Y003552D02*
X016817Y003552D01*
X016794Y003529D02*
X016794Y003529D01*
X016719Y003454D02*
X026231Y003454D01*
X026231Y003355D02*
X007175Y003355D01*
X007201Y003294D02*
X007120Y003489D01*
X006971Y003638D01*
X006848Y003688D01*
X006971Y003739D01*
X007120Y003888D01*
X007201Y004083D01*
X007201Y004294D01*
X007120Y004489D01*
X006971Y004638D01*
X006776Y004718D01*
X006085Y004718D01*
X005890Y004638D01*
X005741Y004489D01*
X005661Y004294D01*
X005661Y004083D01*
X005741Y003888D01*
X005890Y003739D01*
X006013Y003688D01*
X005890Y003638D01*
X005741Y003489D01*
X005661Y003294D01*
X005661Y003083D01*
X005741Y002888D01*
X005890Y002739D01*
X006085Y002659D01*
X006776Y002659D01*
X006971Y002739D01*
X007120Y002888D01*
X007201Y003083D01*
X007201Y003294D01*
X007201Y003256D02*
X026231Y003256D01*
X026231Y003158D02*
X007201Y003158D01*
X007191Y003059D02*
X026231Y003059D01*
X026231Y002961D02*
X022591Y002961D01*
X022791Y002862D02*
X026231Y002862D01*
X025487Y002764D02*
X022890Y002764D01*
X022955Y002665D02*
X025347Y002665D01*
X025299Y002567D02*
X022995Y002567D01*
X023021Y002468D02*
X025291Y002468D01*
X025291Y002370D02*
X023021Y002370D01*
X023021Y002271D02*
X025291Y002271D01*
X025291Y002172D02*
X023021Y002172D01*
X023021Y002074D02*
X025291Y002074D01*
X025291Y001975D02*
X023021Y001975D01*
X022070Y002862D02*
X021791Y002862D01*
X021890Y002764D02*
X021971Y002764D01*
X022271Y002961D02*
X021591Y002961D01*
X021271Y002961D02*
X020591Y002961D01*
X020791Y002862D02*
X021070Y002862D01*
X020971Y002764D02*
X020890Y002764D01*
X020271Y002961D02*
X019591Y002961D01*
X019791Y002862D02*
X020070Y002862D01*
X019971Y002764D02*
X019890Y002764D01*
X019271Y002961D02*
X018591Y002961D01*
X018791Y002862D02*
X019070Y002862D01*
X018971Y002764D02*
X018890Y002764D01*
X018271Y002961D02*
X017591Y002961D01*
X017791Y002862D02*
X018070Y002862D01*
X017971Y002764D02*
X017890Y002764D01*
X017271Y002961D02*
X015591Y002961D01*
X015791Y002862D02*
X017070Y002862D01*
X016971Y002764D02*
X015890Y002764D01*
X015955Y002665D02*
X016907Y002665D01*
X016866Y002567D02*
X015995Y002567D01*
X016021Y002468D02*
X016841Y002468D01*
X016841Y002370D02*
X016021Y002370D01*
X016021Y002271D02*
X016841Y002271D01*
X016841Y002172D02*
X016021Y002172D01*
X016021Y002074D02*
X016841Y002074D01*
X016841Y001975D02*
X016021Y001975D01*
X015070Y002862D02*
X014791Y002862D01*
X014890Y002764D02*
X014971Y002764D01*
X015271Y002961D02*
X014591Y002961D01*
X014271Y002961D02*
X013591Y002961D01*
X013791Y002862D02*
X014070Y002862D01*
X013971Y002764D02*
X013890Y002764D01*
X013271Y002961D02*
X012591Y002961D01*
X012791Y002862D02*
X013070Y002862D01*
X012971Y002764D02*
X012890Y002764D01*
X012271Y002961D02*
X011591Y002961D01*
X011791Y002862D02*
X012070Y002862D01*
X011971Y002764D02*
X011890Y002764D01*
X011271Y002961D02*
X010591Y002961D01*
X010791Y002862D02*
X011070Y002862D01*
X010971Y002764D02*
X010890Y002764D01*
X010271Y002961D02*
X007150Y002961D01*
X007094Y002862D02*
X010070Y002862D01*
X009971Y002764D02*
X006995Y002764D01*
X006792Y002665D02*
X009907Y002665D01*
X009866Y002567D02*
X004191Y002567D01*
X004221Y002468D02*
X009841Y002468D01*
X009841Y002370D02*
X004221Y002370D01*
X004221Y002271D02*
X009841Y002271D01*
X009841Y002172D02*
X004221Y002172D01*
X004221Y002074D02*
X009841Y002074D01*
X009841Y001975D02*
X004221Y001975D01*
X004114Y002665D02*
X006069Y002665D01*
X005866Y002764D02*
X003431Y002764D01*
X003431Y002862D02*
X005767Y002862D01*
X005711Y002961D02*
X003431Y002961D01*
X003431Y003059D02*
X005670Y003059D01*
X005661Y003158D02*
X005335Y003158D01*
X005246Y003069D02*
X004815Y003069D01*
X004681Y003203D01*
X004625Y003148D01*
X004434Y003069D01*
X004227Y003069D01*
X004036Y003148D01*
X003890Y003294D01*
X003811Y003485D01*
X003811Y003692D01*
X003890Y003883D01*
X004036Y004029D01*
X004227Y004108D01*
X004434Y004108D01*
X004625Y004029D01*
X004681Y003974D01*
X004815Y004108D01*
X005246Y004108D01*
X005551Y003804D01*
X005551Y003373D01*
X005246Y003069D01*
X005434Y003256D02*
X005661Y003256D01*
X005686Y003355D02*
X005532Y003355D01*
X005551Y003454D02*
X005727Y003454D01*
X005805Y003552D02*
X005551Y003552D01*
X005551Y003651D02*
X005921Y003651D01*
X005880Y003749D02*
X005551Y003749D01*
X005507Y003848D02*
X005782Y003848D01*
X005717Y003946D02*
X005408Y003946D01*
X005310Y004045D02*
X005676Y004045D01*
X005661Y004143D02*
X003431Y004143D01*
X003431Y004045D02*
X004073Y004045D01*
X003953Y003946D02*
X003431Y003946D01*
X003431Y003848D02*
X003875Y003848D01*
X003834Y003749D02*
X003431Y003749D01*
X003431Y003651D02*
X003811Y003651D01*
X003811Y003552D02*
X003431Y003552D01*
X003431Y003454D02*
X003824Y003454D01*
X003864Y003355D02*
X003431Y003355D01*
X003431Y003256D02*
X003927Y003256D01*
X004026Y003158D02*
X003431Y003158D01*
X003431Y004242D02*
X005661Y004242D01*
X005680Y004340D02*
X003431Y004340D01*
X003431Y004439D02*
X005721Y004439D01*
X005790Y004538D02*
X003431Y004538D01*
X003431Y004636D02*
X005889Y004636D01*
X004752Y004045D02*
X004588Y004045D01*
X004635Y003158D02*
X004726Y003158D01*
X003431Y004735D02*
X011423Y004735D01*
X011411Y004833D02*
X003431Y004833D01*
X003431Y004932D02*
X011411Y004932D01*
X011411Y005030D02*
X011395Y005030D01*
X011464Y004636D02*
X006972Y004636D01*
X007071Y004538D02*
X011558Y004538D01*
X011657Y004439D02*
X007140Y004439D01*
X007181Y004340D02*
X011755Y004340D01*
X011854Y004242D02*
X007201Y004242D01*
X007201Y004143D02*
X011952Y004143D01*
X012051Y004045D02*
X007185Y004045D01*
X007144Y003946D02*
X012150Y003946D01*
X012248Y003848D02*
X007079Y003848D01*
X006981Y003749D02*
X012347Y003749D01*
X012445Y003651D02*
X006940Y003651D01*
X007056Y003552D02*
X012544Y003552D01*
X012642Y003454D02*
X007134Y003454D01*
X009947Y005326D02*
X003431Y005326D01*
X003431Y005424D02*
X009911Y005424D01*
X009911Y005523D02*
X003431Y005523D01*
X003431Y005621D02*
X009911Y005621D01*
X009911Y005720D02*
X006925Y005720D01*
X007050Y005819D02*
X009911Y005819D01*
X009911Y005917D02*
X007132Y005917D01*
X007173Y006016D02*
X009911Y006016D01*
X009847Y006114D02*
X007201Y006114D01*
X007201Y006213D02*
X009798Y006213D01*
X009789Y006311D02*
X007193Y006311D01*
X007153Y006410D02*
X009789Y006410D01*
X009670Y006508D02*
X007100Y006508D01*
X007002Y006607D02*
X009536Y006607D01*
X009460Y006705D02*
X006889Y006705D01*
X007036Y006804D02*
X009419Y006804D01*
X009402Y006903D02*
X007126Y006903D01*
X007167Y007001D02*
X009402Y007001D01*
X009430Y007100D02*
X007201Y007100D01*
X007201Y007198D02*
X009471Y007198D01*
X009563Y007297D02*
X007199Y007297D01*
X007159Y007395D02*
X009734Y007395D01*
X009789Y007494D02*
X007115Y007494D01*
X007016Y007592D02*
X009789Y007592D01*
X009809Y007691D02*
X006854Y007691D01*
X007021Y007789D02*
X009873Y007789D01*
X011328Y006939D02*
X011346Y006946D01*
X011369Y006969D01*
X013204Y006969D01*
X013340Y007025D01*
X013444Y007129D01*
X013594Y007279D01*
X013651Y007415D01*
X013651Y007449D01*
X013963Y007449D01*
X014031Y007476D01*
X014098Y007449D01*
X014377Y007449D01*
X014431Y007264D01*
X014608Y007111D01*
X014758Y007089D01*
X014677Y007008D01*
X013857Y007008D01*
X013721Y006952D01*
X013617Y006848D01*
X013467Y006698D01*
X013460Y006682D01*
X013444Y006698D01*
X013340Y006802D01*
X013204Y006858D01*
X011419Y006858D01*
X011346Y006931D01*
X011328Y006939D01*
X011375Y006903D02*
X013671Y006903D01*
X013573Y006804D02*
X013336Y006804D01*
X013437Y006705D02*
X013474Y006705D01*
X013283Y007001D02*
X013839Y007001D01*
X013602Y007297D02*
X014422Y007297D01*
X014393Y007395D02*
X013642Y007395D01*
X013513Y007198D02*
X014507Y007198D01*
X014687Y007100D02*
X013415Y007100D01*
X015564Y008381D02*
X015865Y008381D01*
X015767Y008479D02*
X015547Y008479D01*
X015640Y008578D02*
X015668Y008578D01*
X015961Y007395D02*
X015925Y007359D01*
X015811Y005419D02*
X015811Y005385D01*
X015777Y005419D01*
X015811Y005419D01*
X017247Y004932D02*
X023726Y004932D01*
X023726Y005030D02*
X017345Y005030D01*
X017444Y005129D02*
X023726Y005129D01*
X023726Y005227D02*
X017543Y005227D01*
X017584Y005326D02*
X023726Y005326D01*
X023726Y005424D02*
X017601Y005424D01*
X013788Y005249D02*
X013788Y004915D01*
X013790Y004908D01*
X013788Y004902D01*
X013788Y004801D01*
X013119Y004801D01*
X013186Y004868D01*
X013259Y005043D01*
X013259Y005234D01*
X013252Y005249D01*
X013463Y005249D01*
X013531Y005276D01*
X013598Y005249D01*
X013788Y005249D01*
X013788Y005227D02*
X013259Y005227D01*
X013259Y005129D02*
X013788Y005129D01*
X013788Y005030D02*
X013253Y005030D01*
X013212Y004932D02*
X013788Y004932D01*
X013788Y004833D02*
X013151Y004833D01*
X010216Y005030D02*
X003431Y005030D01*
X003431Y005129D02*
X010117Y005129D01*
X010018Y005227D02*
X003431Y005227D01*
X003431Y005720D02*
X004103Y005720D01*
X004036Y005748D02*
X004227Y005669D01*
X004434Y005669D01*
X004625Y005748D01*
X004681Y005803D01*
X004815Y005669D01*
X005246Y005669D01*
X005551Y005973D01*
X005551Y006404D01*
X005246Y006708D01*
X004815Y006708D01*
X004681Y006574D01*
X004625Y006629D01*
X004434Y006708D01*
X004227Y006708D01*
X004036Y006629D01*
X003890Y006483D01*
X003811Y006292D01*
X003811Y006085D01*
X003890Y005894D01*
X004036Y005748D01*
X003965Y005819D02*
X003431Y005819D01*
X003431Y005917D02*
X003880Y005917D01*
X003839Y006016D02*
X003431Y006016D01*
X003431Y006114D02*
X003811Y006114D01*
X003811Y006213D02*
X003431Y006213D01*
X003431Y006311D02*
X003819Y006311D01*
X003859Y006410D02*
X003431Y006410D01*
X003431Y006508D02*
X003915Y006508D01*
X004014Y006607D02*
X003431Y006607D01*
X003431Y006705D02*
X004220Y006705D01*
X004441Y006705D02*
X004812Y006705D01*
X004714Y006607D02*
X004647Y006607D01*
X005249Y006705D02*
X005972Y006705D01*
X005859Y006607D02*
X005347Y006607D01*
X005446Y006508D02*
X005761Y006508D01*
X005709Y006410D02*
X005545Y006410D01*
X005551Y006311D02*
X005668Y006311D01*
X005661Y006213D02*
X005551Y006213D01*
X005551Y006114D02*
X005661Y006114D01*
X005688Y006016D02*
X005551Y006016D01*
X005495Y005917D02*
X005729Y005917D01*
X005811Y005819D02*
X005396Y005819D01*
X005297Y005720D02*
X005936Y005720D01*
X004764Y005720D02*
X004558Y005720D01*
X003431Y006804D02*
X005825Y006804D01*
X005735Y006903D02*
X003431Y006903D01*
X003431Y007001D02*
X005694Y007001D01*
X005661Y007100D02*
X003431Y007100D01*
X003431Y007198D02*
X005661Y007198D01*
X005662Y007297D02*
X003431Y007297D01*
X003431Y007395D02*
X005703Y007395D01*
X005746Y007494D02*
X003431Y007494D01*
X003431Y007592D02*
X005845Y007592D01*
X004850Y008676D02*
X004578Y008676D01*
X004677Y008578D02*
X004684Y008578D01*
X003431Y009859D02*
X008487Y009859D01*
X008405Y009957D02*
X003431Y009957D01*
X003431Y010056D02*
X008364Y010056D01*
X008361Y010154D02*
X003431Y010154D01*
X003431Y010253D02*
X008361Y010253D01*
X008361Y010352D02*
X003431Y010352D01*
X003431Y010450D02*
X008361Y010450D01*
X008361Y010549D02*
X003431Y010549D01*
X003431Y010647D02*
X008361Y010647D01*
X008361Y010746D02*
X003431Y010746D01*
X003431Y010844D02*
X008361Y010844D01*
X008361Y010943D02*
X003431Y010943D01*
X003431Y011041D02*
X008361Y011041D01*
X008361Y011140D02*
X003431Y011140D01*
X003431Y011238D02*
X008361Y011238D01*
X008361Y011337D02*
X003431Y011337D01*
X003431Y011436D02*
X008361Y011436D01*
X008361Y011534D02*
X003431Y011534D01*
X003431Y011633D02*
X008361Y011633D01*
X008361Y011731D02*
X003431Y011731D01*
X003431Y011830D02*
X008361Y011830D01*
X008361Y011928D02*
X003431Y011928D01*
X003431Y012027D02*
X008361Y012027D01*
X008361Y012125D02*
X003431Y012125D01*
X003431Y012224D02*
X008361Y012224D01*
X008361Y012322D02*
X003431Y012322D01*
X003431Y012421D02*
X008361Y012421D01*
X008361Y012520D02*
X003431Y012520D01*
X003431Y012618D02*
X008361Y012618D01*
X008361Y012717D02*
X003431Y012717D01*
X003431Y012815D02*
X008361Y012815D01*
X008361Y012914D02*
X003431Y012914D01*
X003431Y013012D02*
X008361Y013012D01*
X008361Y013111D02*
X003431Y013111D01*
X003431Y013209D02*
X008361Y013209D01*
X008361Y013308D02*
X003431Y013308D01*
X003431Y013406D02*
X008361Y013406D01*
X008361Y013505D02*
X003431Y013505D01*
X003431Y013604D02*
X008361Y013604D01*
X008361Y013702D02*
X003431Y013702D01*
X003431Y013801D02*
X008361Y013801D01*
X008361Y013899D02*
X003431Y013899D01*
X003431Y013998D02*
X008361Y013998D01*
X008361Y014096D02*
X003431Y014096D01*
X003431Y014195D02*
X008361Y014195D01*
X008361Y014293D02*
X003431Y014293D01*
X003431Y014392D02*
X008361Y014392D01*
X008361Y014490D02*
X003431Y014490D01*
X003431Y014589D02*
X008361Y014589D01*
X008361Y014687D02*
X003431Y014687D01*
X003431Y014786D02*
X008361Y014786D01*
X008477Y015558D02*
X008486Y015568D01*
X008559Y015743D01*
X008559Y015934D01*
X008532Y015999D01*
X008711Y015999D01*
X008711Y015558D01*
X008477Y015558D01*
X008489Y015574D02*
X008711Y015574D01*
X008711Y015673D02*
X008529Y015673D01*
X008559Y015771D02*
X008711Y015771D01*
X008711Y015870D02*
X008559Y015870D01*
X008544Y015969D02*
X008711Y015969D01*
X007629Y015999D02*
X007602Y015934D01*
X007602Y015743D01*
X007675Y015568D01*
X007684Y015558D01*
X007534Y015558D01*
X007451Y015642D01*
X007451Y015999D01*
X007629Y015999D01*
X007617Y015969D02*
X007451Y015969D01*
X007451Y015870D02*
X007602Y015870D01*
X007602Y015771D02*
X007451Y015771D01*
X007451Y015673D02*
X007632Y015673D01*
X007672Y015574D02*
X007518Y015574D01*
X006964Y015082D02*
X003431Y015082D01*
X003431Y015180D02*
X006866Y015180D01*
X006767Y015279D02*
X003431Y015279D01*
X003431Y015377D02*
X006726Y015377D01*
X006711Y015476D02*
X003431Y015476D01*
X003431Y015574D02*
X006711Y015574D01*
X006711Y015673D02*
X003431Y015673D01*
X003431Y015771D02*
X006711Y015771D01*
X006711Y015870D02*
X003431Y015870D01*
X003431Y015969D02*
X005195Y015969D01*
X005076Y016067D02*
X003431Y016067D01*
X003431Y016166D02*
X005005Y016166D01*
X004965Y016264D02*
X003431Y016264D01*
X003431Y016363D02*
X004952Y016363D01*
X004952Y016461D02*
X003431Y016461D01*
X003431Y016560D02*
X004984Y016560D01*
X005025Y016658D02*
X003431Y016658D01*
X005666Y015969D02*
X006711Y015969D01*
X007063Y014983D02*
X003431Y014983D01*
X003431Y014885D02*
X007161Y014885D01*
X010429Y014743D02*
X010429Y013684D01*
X010773Y013093D01*
X011088Y013093D02*
X011433Y013684D01*
X011431Y013686D01*
X011431Y014039D01*
X011088Y014381D01*
X011088Y014743D01*
X010773Y014743D02*
X010773Y013684D01*
X011088Y013684D01*
X011433Y013093D02*
X011585Y013093D01*
X011781Y013289D01*
X011781Y014039D01*
X011433Y014387D01*
X011433Y014743D01*
X011841Y014786D02*
X012470Y014786D01*
X012470Y014687D02*
X011841Y014687D01*
X011841Y014589D02*
X012255Y014589D01*
X012260Y014594D02*
X012125Y014459D01*
X012052Y014284D01*
X012052Y014247D01*
X011973Y014327D01*
X011820Y014479D01*
X011841Y014528D01*
X011841Y014958D01*
X011838Y014964D01*
X011849Y014964D01*
X011985Y015020D01*
X012470Y015505D01*
X012470Y015219D01*
X012504Y015139D01*
X012470Y015058D01*
X012470Y014667D01*
X012435Y014667D01*
X012260Y014594D01*
X012156Y014490D02*
X011825Y014490D01*
X011908Y014392D02*
X012097Y014392D01*
X012056Y014293D02*
X012006Y014293D01*
X012121Y013899D02*
X012144Y013899D01*
X012161Y013801D02*
X012121Y013801D01*
X012121Y013702D02*
X012161Y013702D01*
X012161Y013604D02*
X012121Y013604D01*
X012121Y013505D02*
X012161Y013505D01*
X012161Y013406D02*
X012121Y013406D01*
X012121Y013308D02*
X012161Y013308D01*
X012163Y013209D02*
X012116Y013209D01*
X012075Y013111D02*
X012204Y013111D01*
X012284Y013012D02*
X011985Y013012D01*
X011887Y012914D02*
X012382Y012914D01*
X012481Y012815D02*
X011815Y012815D01*
X011854Y012717D02*
X012569Y012717D01*
X012879Y013684D02*
X012879Y014843D01*
X012470Y014885D02*
X011841Y014885D01*
X011896Y014983D02*
X012470Y014983D01*
X012480Y015082D02*
X012047Y015082D01*
X012145Y015180D02*
X012486Y015180D01*
X012470Y015279D02*
X012244Y015279D01*
X012343Y015377D02*
X012470Y015377D01*
X012470Y015476D02*
X012441Y015476D01*
X014296Y014786D02*
X015688Y014786D01*
X015515Y014687D02*
X014291Y014687D01*
X014274Y014589D02*
X015355Y014589D01*
X015267Y014490D02*
X014359Y014490D01*
X014458Y014392D02*
X015227Y014392D01*
X015202Y014293D02*
X014556Y014293D01*
X014605Y014195D02*
X015202Y014195D01*
X015222Y014096D02*
X014621Y014096D01*
X014621Y013998D02*
X015263Y013998D01*
X015311Y013899D02*
X014621Y013899D01*
X014621Y013801D02*
X015311Y013801D01*
X015311Y013702D02*
X014621Y013702D01*
X014621Y013604D02*
X015311Y013604D01*
X015311Y013505D02*
X014621Y013505D01*
X014621Y013406D02*
X015311Y013406D01*
X015311Y013308D02*
X014621Y013308D01*
X014621Y013209D02*
X015334Y013209D01*
X015385Y013111D02*
X014621Y013111D01*
X014596Y013012D02*
X015484Y013012D01*
X015582Y012914D02*
X014537Y012914D01*
X014438Y012815D02*
X015771Y012815D01*
X016423Y013193D02*
X016079Y013784D01*
X016079Y015043D01*
X016423Y015043D02*
X016423Y013784D01*
X016738Y013784D01*
X017081Y013786D02*
X017083Y013784D01*
X016738Y013193D01*
X016865Y012717D02*
X014359Y012717D01*
X014359Y012618D02*
X016772Y012618D01*
X016680Y012520D02*
X014349Y012520D01*
X014308Y012421D02*
X014690Y012421D01*
X014591Y012322D02*
X014241Y012322D01*
X014129Y012224D02*
X014493Y012224D01*
X016101Y011337D02*
X016611Y011337D01*
X016611Y011238D02*
X016101Y011238D01*
X016101Y011140D02*
X016611Y011140D01*
X016611Y011041D02*
X016101Y011041D01*
X016101Y010943D02*
X016611Y010943D01*
X016611Y010844D02*
X016101Y010844D01*
X016101Y010746D02*
X016611Y010746D01*
X016611Y010647D02*
X016101Y010647D01*
X016101Y010549D02*
X016611Y010549D01*
X015361Y010460D02*
X015361Y010292D01*
X015335Y010266D01*
X015223Y010266D01*
X015223Y010416D01*
X015205Y010460D01*
X015361Y010460D01*
X015361Y010450D02*
X015209Y010450D01*
X015223Y010352D02*
X015361Y010352D01*
X017081Y013786D02*
X017081Y014239D01*
X016738Y014581D01*
X016738Y015043D01*
X014363Y017218D02*
X014201Y017218D01*
X014201Y017219D02*
X014254Y017219D01*
X014274Y017227D01*
X014295Y017229D01*
X014341Y017255D01*
X014352Y017259D01*
X014352Y017243D01*
X014363Y017218D01*
X014352Y017250D02*
X014332Y017250D01*
X014201Y017218D02*
X014201Y017219D01*
X014137Y017216D02*
X014081Y017193D01*
X014018Y017218D01*
X013643Y017218D01*
X013581Y017193D01*
X013518Y017218D01*
X013143Y017218D01*
X013081Y017193D01*
X013018Y017218D01*
X012643Y017218D01*
X012581Y017193D01*
X012518Y017218D01*
X012309Y017218D01*
X012309Y017219D01*
X014128Y017219D01*
X014137Y017216D01*
X014003Y017958D02*
X013177Y017958D01*
X013236Y018018D01*
X013309Y018193D01*
X013309Y018259D01*
X013518Y018259D01*
X013581Y018284D01*
X013643Y018259D01*
X013961Y018259D01*
X013961Y018215D01*
X014011Y018094D01*
X014011Y017968D01*
X014003Y017958D01*
X014011Y018038D02*
X013244Y018038D01*
X013285Y018136D02*
X013993Y018136D01*
X013961Y018235D02*
X013309Y018235D01*
X012484Y017958D02*
X012309Y017958D01*
X012309Y018034D01*
X012236Y018209D01*
X012201Y018245D01*
X012201Y018259D01*
X012352Y018259D01*
X012352Y018193D01*
X012425Y018018D01*
X012484Y017958D01*
X012417Y018038D02*
X012307Y018038D01*
X012266Y018136D02*
X012376Y018136D01*
X012352Y018235D02*
X012210Y018235D01*
X010911Y018573D02*
X010911Y019219D01*
X010109Y019219D01*
X010109Y019093D01*
X010036Y018918D01*
X009901Y018783D01*
X009726Y018710D01*
X009535Y018710D01*
X009496Y018727D01*
X009496Y018538D01*
X010122Y018538D01*
X010169Y018586D01*
X010276Y018630D01*
X010785Y018630D01*
X010892Y018586D01*
X010904Y018573D01*
X010911Y018573D01*
X010911Y018629D02*
X010786Y018629D01*
X010911Y018728D02*
X009768Y018728D01*
X009944Y018826D02*
X010911Y018826D01*
X010911Y018925D02*
X010039Y018925D01*
X010080Y019023D02*
X010911Y019023D01*
X010911Y019122D02*
X010109Y019122D01*
X009261Y019495D02*
X009225Y019459D01*
X009152Y019284D01*
X009152Y019278D01*
X008898Y019278D01*
X008831Y019251D01*
X008763Y019278D01*
X008451Y019278D01*
X008451Y019519D01*
X009263Y019519D01*
X009261Y019512D01*
X009261Y019495D01*
X009262Y019516D02*
X008451Y019516D01*
X008451Y019418D02*
X009208Y019418D01*
X009167Y019319D02*
X008451Y019319D01*
X009496Y018629D02*
X010275Y018629D01*
X010352Y020258D02*
X010093Y020258D01*
X010165Y020288D01*
X010331Y020454D01*
X010381Y020403D01*
X010279Y020403D01*
X010352Y020334D02*
X010352Y020258D01*
X010352Y020304D02*
X010181Y020304D01*
X010352Y020334D02*
X010381Y020403D01*
X009568Y020258D02*
X009201Y020258D01*
X009201Y020324D01*
X009331Y020454D01*
X009496Y020288D01*
X009568Y020258D01*
X009480Y020304D02*
X009201Y020304D01*
X009279Y020403D02*
X009382Y020403D01*
X011280Y020403D02*
X011331Y020454D01*
X011461Y020324D01*
X011461Y020258D01*
X011309Y020258D01*
X011309Y020334D01*
X011280Y020403D01*
X011382Y020403D01*
X011309Y020304D02*
X011461Y020304D01*
X014415Y020658D02*
X014421Y020671D01*
X014421Y021209D01*
X014841Y021214D01*
X014841Y020671D01*
X014846Y020658D01*
X014415Y020658D01*
X014421Y020699D02*
X014841Y020699D01*
X014841Y020797D02*
X014421Y020797D01*
X014421Y020896D02*
X014841Y020896D01*
X014841Y020994D02*
X014421Y020994D01*
X014421Y021093D02*
X014841Y021093D01*
X014841Y021191D02*
X014421Y021191D01*
X015251Y019269D02*
X015911Y019269D01*
X015911Y018717D01*
X015892Y018736D01*
X015785Y018780D01*
X015276Y018780D01*
X015251Y018769D01*
X015251Y019269D01*
X015251Y019220D02*
X015911Y019220D01*
X015911Y019122D02*
X015251Y019122D01*
X015251Y019023D02*
X015911Y019023D01*
X015911Y018925D02*
X015251Y018925D01*
X015251Y018826D02*
X015911Y018826D01*
X015899Y018728D02*
X015911Y018728D01*
X015044Y017869D02*
X014751Y017869D01*
X014751Y017859D01*
X014755Y017817D01*
X014926Y017817D01*
X015044Y017768D01*
X015044Y017869D01*
X015044Y017841D02*
X014753Y017841D01*
X017309Y018308D02*
X017309Y018359D01*
X017352Y018359D01*
X017352Y018308D01*
X017309Y018308D01*
X017309Y018334D02*
X017352Y018334D01*
X018309Y018334D02*
X018961Y018334D01*
X018961Y018359D02*
X018961Y018308D01*
X018309Y018308D01*
X018309Y018359D01*
X018518Y018359D01*
X018581Y018384D01*
X018643Y018359D01*
X018961Y018359D01*
X020103Y017742D02*
X023153Y017742D01*
X023244Y017644D02*
X020201Y017644D01*
X026092Y021158D02*
X026118Y021184D01*
X026162Y021291D01*
X026162Y021338D01*
X026231Y021339D01*
X026231Y021279D01*
X026200Y021266D01*
X026118Y021184D01*
X026107Y021158D01*
X026092Y021158D01*
X026121Y021191D02*
X026125Y021191D01*
X026162Y021290D02*
X026231Y021290D01*
X025222Y011319D02*
X025222Y011276D01*
X025266Y011170D01*
X025307Y011129D01*
X025266Y011087D01*
X025233Y011008D01*
X025062Y011008D01*
X025058Y011019D01*
X024976Y011101D01*
X024870Y011145D01*
X024361Y011145D01*
X024281Y011112D01*
X024200Y011145D01*
X023691Y011145D01*
X023667Y011135D01*
X023667Y011182D01*
X024150Y011182D01*
X024231Y011215D01*
X024311Y011182D01*
X024820Y011182D01*
X024926Y011226D01*
X025008Y011308D01*
X025012Y011319D01*
X025222Y011319D01*
X025237Y011238D02*
X024939Y011238D01*
X024882Y011140D02*
X025296Y011140D01*
X025247Y011041D02*
X025036Y011041D01*
X024348Y011140D02*
X024213Y011140D01*
X023679Y011140D02*
X023667Y011140D01*
X024718Y010132D02*
X024870Y010132D01*
X024976Y010176D01*
X025058Y010258D01*
X025062Y010269D01*
X025222Y010269D01*
X025222Y010196D01*
X025266Y010090D01*
X025307Y010048D01*
X025266Y010007D01*
X025222Y009901D01*
X025222Y009116D01*
X025266Y009009D01*
X025307Y008969D01*
X025266Y008927D01*
X025222Y008821D01*
X025222Y008036D01*
X025266Y007930D01*
X025307Y007888D01*
X024466Y007888D01*
X024466Y007987D02*
X025242Y007987D01*
X025222Y008085D02*
X024466Y008085D01*
X024466Y008184D02*
X025222Y008184D01*
X025222Y008282D02*
X024466Y008282D01*
X024466Y008381D02*
X025222Y008381D01*
X025222Y008479D02*
X024466Y008479D01*
X024466Y008578D02*
X025222Y008578D01*
X025222Y008676D02*
X024466Y008676D01*
X024466Y008775D02*
X025222Y008775D01*
X025244Y008873D02*
X024466Y008873D01*
X024466Y008972D02*
X025303Y008972D01*
X025241Y009071D02*
X024466Y009071D01*
X024466Y009169D02*
X025222Y009169D01*
X025222Y009268D02*
X024466Y009268D01*
X024466Y009366D02*
X025222Y009366D01*
X025222Y009465D02*
X024466Y009465D01*
X024466Y009498D02*
X024551Y009533D01*
X024686Y009668D01*
X024759Y009843D01*
X024759Y010034D01*
X024718Y010132D01*
X024749Y010056D02*
X025299Y010056D01*
X025245Y009957D02*
X024759Y009957D01*
X024759Y009859D02*
X025222Y009859D01*
X025222Y009760D02*
X024724Y009760D01*
X024680Y009662D02*
X025222Y009662D01*
X025222Y009563D02*
X024581Y009563D01*
X024466Y009498D02*
X024466Y004626D01*
X024511Y004645D01*
X025020Y004645D01*
X025126Y004601D01*
X025208Y004519D01*
X025222Y004486D01*
X025222Y004501D01*
X025266Y004607D01*
X025307Y004648D01*
X025266Y004690D01*
X025222Y004796D01*
X025222Y005581D01*
X025266Y005687D01*
X025307Y005729D01*
X025266Y005770D01*
X025222Y005876D01*
X025222Y006661D01*
X025266Y006767D01*
X025307Y006809D01*
X025266Y006849D01*
X025222Y006956D01*
X025222Y007741D01*
X025266Y007847D01*
X025307Y007888D01*
X025242Y007789D02*
X024466Y007789D01*
X024466Y007691D02*
X025222Y007691D01*
X025222Y007592D02*
X024466Y007592D01*
X024466Y007494D02*
X025222Y007494D01*
X025222Y007395D02*
X024466Y007395D01*
X024466Y007297D02*
X025222Y007297D01*
X025222Y007198D02*
X024466Y007198D01*
X024466Y007100D02*
X025222Y007100D01*
X025222Y007001D02*
X024466Y007001D01*
X024466Y006903D02*
X025244Y006903D01*
X025302Y006804D02*
X024466Y006804D01*
X024466Y006705D02*
X025240Y006705D01*
X025222Y006607D02*
X024466Y006607D01*
X024466Y006508D02*
X025222Y006508D01*
X025222Y006410D02*
X024466Y006410D01*
X024466Y006311D02*
X025222Y006311D01*
X025222Y006213D02*
X024466Y006213D01*
X024466Y006114D02*
X025222Y006114D01*
X025222Y006016D02*
X024466Y006016D01*
X024466Y005917D02*
X025222Y005917D01*
X025246Y005819D02*
X024466Y005819D01*
X024466Y005720D02*
X025298Y005720D01*
X025239Y005621D02*
X024466Y005621D01*
X024466Y005523D02*
X025222Y005523D01*
X025222Y005424D02*
X024466Y005424D01*
X024466Y005326D02*
X025222Y005326D01*
X025222Y005227D02*
X024466Y005227D01*
X024466Y005129D02*
X025222Y005129D01*
X025222Y005030D02*
X024466Y005030D01*
X024466Y004932D02*
X025222Y004932D01*
X025222Y004833D02*
X024466Y004833D01*
X024466Y004735D02*
X025247Y004735D01*
X025295Y004636D02*
X025041Y004636D01*
X025190Y004538D02*
X025237Y004538D01*
X024489Y004636D02*
X024466Y004636D01*
X023461Y010084D02*
X023444Y010101D01*
X023487Y010119D01*
X023461Y010084D01*
X024924Y010154D02*
X025239Y010154D01*
X025222Y010253D02*
X025053Y010253D01*
M02*
