G75*
G70*
%OFA0B0*%
%FSLAX24Y24*%
%IPPOS*%
%LPD*%
%AMOC8*
5,1,8,0,0,1.08239X$1,22.5*
%
%ADD10C,0.0680*%
%ADD11C,0.0560*%
%ADD12OC8,0.0540*%
%ADD13C,0.0540*%
%ADD14R,0.1458X0.0749*%
%ADD15C,0.0456*%
%ADD16R,0.1080X0.1080*%
D10*
X010431Y001789D02*
X010431Y002389D01*
X011431Y002389D02*
X011431Y001789D01*
X012431Y001789D02*
X012431Y002389D01*
X013431Y002389D02*
X013431Y001789D01*
X014431Y001789D02*
X014431Y002389D01*
X015431Y002389D02*
X015431Y001789D01*
X017431Y001789D02*
X017431Y002389D01*
X018431Y002389D02*
X018431Y001789D01*
X019431Y001789D02*
X019431Y002389D01*
X020431Y002389D02*
X020431Y001789D01*
X021431Y001789D02*
X021431Y002389D01*
X022431Y002389D02*
X022431Y001789D01*
X022431Y020789D02*
X022431Y021389D01*
X021431Y021389D02*
X021431Y020789D01*
X020431Y020789D02*
X020431Y021389D01*
X019431Y021389D02*
X019431Y020789D01*
X018431Y020789D02*
X018431Y021389D01*
X017431Y021389D02*
X017431Y020789D01*
X016431Y020789D02*
X016431Y021389D01*
X015431Y021389D02*
X015431Y020789D01*
X013831Y020789D02*
X013831Y021389D01*
X012831Y021389D02*
X012831Y020789D01*
X011831Y020789D02*
X011831Y021389D01*
X010831Y021389D02*
X010831Y020789D01*
X009831Y020789D02*
X009831Y021389D01*
X008831Y021389D02*
X008831Y020789D01*
X007831Y020789D02*
X007831Y021389D01*
X006831Y021389D02*
X006831Y020789D01*
D11*
X006671Y008189D02*
X006191Y008189D01*
X006191Y007189D02*
X006671Y007189D01*
X006671Y006189D02*
X006191Y006189D01*
X006191Y004189D02*
X006671Y004189D01*
X006671Y003189D02*
X006191Y003189D01*
D12*
X005031Y003589D03*
X005031Y006189D03*
X004331Y008189D03*
D13*
X005031Y008189D03*
X004331Y006189D03*
X004331Y003589D03*
D14*
X026201Y004649D03*
X026201Y005729D03*
X026201Y006809D03*
X026201Y007889D03*
X026201Y008969D03*
X026201Y010049D03*
X026201Y011129D03*
X026201Y012209D03*
X026201Y013289D03*
X026201Y014369D03*
X026201Y015449D03*
X026201Y016529D03*
D15*
X024881Y016539D03*
X024931Y015439D03*
X024981Y013839D03*
X023181Y013339D03*
X022181Y014689D03*
X021681Y014789D03*
X021181Y014689D03*
X020081Y013289D03*
X018981Y012589D03*
X020181Y011989D03*
X021531Y012089D03*
X022681Y011789D03*
X022281Y010039D03*
X023081Y009789D03*
X024281Y009939D03*
X023681Y007639D03*
X020831Y006039D03*
X016631Y004839D03*
X015781Y004639D03*
X015431Y005089D03*
X012781Y005139D03*
X010981Y005989D03*
X009881Y006939D03*
X010981Y008189D03*
X010981Y009589D03*
X011781Y009739D03*
X012181Y010139D03*
X012481Y010589D03*
X013731Y010939D03*
X015181Y011789D03*
X015281Y010939D03*
X015331Y009389D03*
X015231Y008839D03*
X015231Y008039D03*
X016331Y007089D03*
X013581Y008689D03*
X012731Y008639D03*
X017831Y011189D03*
X018581Y010539D03*
X020531Y009889D03*
X020181Y009089D03*
X017581Y013489D03*
X018131Y014139D03*
X017681Y014539D03*
X017481Y015139D03*
X015681Y014239D03*
X013881Y012639D03*
X012531Y014189D03*
X011431Y012489D03*
X010031Y014139D03*
X008081Y015839D03*
X010531Y016989D03*
X011831Y017239D03*
X011831Y017939D03*
X012831Y018289D03*
X014831Y017339D03*
X015531Y017039D03*
X016231Y017489D03*
X016831Y018389D03*
X017831Y018339D03*
X019831Y017339D03*
X018831Y019839D03*
X017831Y019889D03*
X013831Y019839D03*
X012831Y020189D03*
X010831Y020239D03*
X009631Y019189D03*
X007581Y018189D03*
X006131Y017889D03*
X004831Y017289D03*
X005431Y016389D03*
X007081Y019789D03*
X023681Y017839D03*
X026031Y019189D03*
D16*
X003431Y001939D03*
X026081Y001989D03*
X003431Y021089D03*
M02*
