%
M48
M72
T01C0.0276
T02C0.0280
T03C0.0320
T04C0.0400
%
T01
X4181Y951
X11781Y6051
X11731Y7951
X13731Y8051
X13231Y9601
X13981Y10051
X16081Y8001
X18281Y8251
X19281Y8251
X21631Y7351
X20181Y6251
X17681Y5601
X14281Y3751
X13281Y3751
X9581Y10051
X11081Y11251
X13731Y12351
X14981Y13051
X13231Y14151
X15781Y14901
X17781Y15451
X18481Y14901
X19331Y14901
X20231Y14701
X21181Y15451
X21631Y13551
X19331Y11901
X18481Y11951
X25831Y13501
X26731Y20101
X14981Y17151
X14781Y18051
X11231Y18011
X10531Y17201
X10331Y15551
X10581Y13151
X6631Y14051
X5281Y12351
X4031Y13901
X6181Y18651
X5181Y18851
X4181Y20101
X24331Y2651
T02
X5781Y2601
X5081Y2601
X5081Y5201
X5781Y5201
X5781Y7201
X5081Y7201
T03
X7181Y7201
X7181Y6201
X7181Y5201
X7181Y3201
X7181Y2201
T04
X11181Y1101
X12181Y1101
X13181Y1101
X14181Y1101
X15181Y1101
X16181Y1101
X18181Y1101
X19181Y1101
X20181Y1101
X21181Y1101
X22181Y1101
X23181Y1101
X23181Y20101
X22181Y20101
X21181Y20101
X20181Y20101
X19181Y20101
X18181Y20101
X17181Y20101
X16181Y20101
X14581Y20101
X13581Y20101
X12581Y20101
X11581Y20101
X10581Y20101
X9581Y20101
X8581Y20101
X7581Y20101
M30
