G75*
G70*
%OFA0B0*%
%FSLAX24Y24*%
%IPPOS*%
%LPD*%
%AMOC8*
5,1,8,0,0,1.08239X$1,22.5*
%
%ADD10C,0.0720*%
%ADD11C,0.0640*%
%ADD12OC8,0.0600*%
%ADD13C,0.0600*%
%ADD14R,0.1458X0.0749*%
%ADD15C,0.0730*%
%ADD16R,0.0730X0.0730*%
%ADD17C,0.0640*%
%ADD18R,0.0640X0.0640*%
%ADD19R,0.1080X0.1080*%
D10*
X011181Y000781D02*
X011181Y001421D01*
X012181Y001421D02*
X012181Y000781D01*
X013181Y000781D02*
X013181Y001421D01*
X014181Y001421D02*
X014181Y000781D01*
X015181Y000781D02*
X015181Y001421D01*
X016181Y001421D02*
X016181Y000781D01*
X018181Y000781D02*
X018181Y001421D01*
X019181Y001421D02*
X019181Y000781D01*
X020181Y000781D02*
X020181Y001421D01*
X021181Y001421D02*
X021181Y000781D01*
X022181Y000781D02*
X022181Y001421D01*
X023181Y001421D02*
X023181Y000781D01*
X023181Y019781D02*
X023181Y020421D01*
X022181Y020421D02*
X022181Y019781D01*
X021181Y019781D02*
X021181Y020421D01*
X020181Y020421D02*
X020181Y019781D01*
X019181Y019781D02*
X019181Y020421D01*
X018181Y020421D02*
X018181Y019781D01*
X017181Y019781D02*
X017181Y020421D01*
X016181Y020421D02*
X016181Y019781D01*
X014581Y019781D02*
X014581Y020421D01*
X013581Y020421D02*
X013581Y019781D01*
X012581Y019781D02*
X012581Y020421D01*
X011581Y020421D02*
X011581Y019781D01*
X010581Y019781D02*
X010581Y020421D01*
X009581Y020421D02*
X009581Y019781D01*
X008581Y019781D02*
X008581Y020421D01*
X007581Y020421D02*
X007581Y019781D01*
D11*
X007461Y007201D02*
X006901Y007201D01*
X006901Y006201D02*
X007461Y006201D01*
X007461Y005201D02*
X006901Y005201D01*
X006901Y003201D02*
X007461Y003201D01*
X007461Y002201D02*
X006901Y002201D01*
D12*
X005781Y002601D03*
X005781Y005201D03*
X005081Y007201D03*
D13*
X005781Y007201D03*
X005081Y005201D03*
X005081Y002601D03*
D14*
X026951Y004661D03*
X026951Y005741D03*
X026951Y006821D03*
X026951Y007901D03*
X026951Y008981D03*
X026951Y010061D03*
X026951Y011141D03*
X026951Y012221D03*
X026951Y013301D03*
X026951Y014381D03*
X026951Y015461D03*
X026951Y016541D03*
D15*
X014281Y003751D03*
D16*
X013281Y003751D03*
D17*
X011781Y006051D03*
X011731Y007951D03*
X013731Y008051D03*
X013231Y009601D03*
X013981Y010051D03*
X016081Y008001D03*
X018281Y008251D03*
X019281Y008251D03*
X021631Y007351D03*
X020181Y006251D03*
X017681Y005601D03*
X024331Y002651D03*
X011081Y011251D03*
X009581Y010051D03*
X013731Y012351D03*
X014981Y013051D03*
X013231Y014151D03*
X015781Y014901D03*
X017781Y015451D03*
X018481Y014901D03*
X019331Y014901D03*
X020231Y014701D03*
X021181Y015451D03*
X021631Y013551D03*
X019331Y011901D03*
X018481Y011951D03*
X014981Y017151D03*
X014781Y018051D03*
X011231Y018011D03*
X010531Y017201D03*
X010331Y015551D03*
X010581Y013151D03*
X006631Y014051D03*
X005281Y012351D03*
X004031Y013901D03*
X006181Y018651D03*
X005181Y018851D03*
D18*
X025831Y013501D03*
D19*
X004181Y000951D03*
X004181Y020101D03*
X026731Y020101D03*
M02*
